<svg width="72" height="72" viewBox="0 0 72 72" fill="none" xmlns="http://www.w3.org/2000/svg">
<path d="M36 0C16.1496 0 0 16.1496 0 36C0 55.8504 16.1496 72 36 72C55.8504 72 72 55.8504 72 36C72 16.1496 55.8504 0 36 0ZM36 65.4545C19.7585 65.4545 6.54545 52.2412 6.54545 36C6.54545 19.7588 19.7585 6.54545 36 6.54545C52.2415 6.54545 65.4545 19.7588 65.4545 36C65.4545 52.2412 52.2412 65.4545 36 65.4545Z" fill="#4CAF50"/>
<path d="M49.4991 23.2722L30.9855 41.7856L22.5004 33.3003C21.2226 32.0224 19.1503 32.0222 17.8722 33.3C16.594 34.5782 16.594 36.6502 17.8722 37.9283L28.6713 48.7279C29.285 49.3416 30.1174 49.6866 30.9853 49.6866H30.9855C31.8535 49.6866 32.6858 49.3416 33.2996 48.7281L54.1274 27.9007C55.4055 26.6226 55.4055 24.5505 54.1274 23.2724C52.8493 21.9943 50.7772 21.9941 49.4991 23.2722Z" fill="#4CAF50"/>
</svg>
