<svg width="43" height="74" viewBox="0 0 43 74" fill="none" xmlns="http://www.w3.org/2000/svg">
<path fill-rule="evenodd" clip-rule="evenodd" d="M0 6.61546V66.6731C0 69.7072 2.05827 72.2815 4.83999 73.0528C4.84489 73.0542 4.86287 73.053 4.86761 73.0544C4.87709 73.0569 4.89105 73.0569 4.90085 73.0579C4.94766 73.0634 4.99455 73.0574 5.04426 73.0637C5.36286 73.1052 5.87643 73.0713 6.17906 73.1025C6.39971 73.1251 6.45022 73.1555 6.67665 73.1564L35.974 73.2885C39.5917 73.3049 42.5519 70.3117 42.5519 66.6731V6.61546C42.5519 2.97689 39.5917 0 35.974 0H6.57804C2.96006 0 0 2.97697 0 6.61546ZM6.38566 5.44252H36.1662C38.3216 5.44252 40.085 7.21618 40.085 9.38376V60.6908C40.085 62.8584 38.3215 64.632 36.1662 64.632H6.38566C4.23024 64.632 2.46681 62.8585 2.46681 60.6908V9.38368C2.46681 7.21594 4.23024 5.44252 6.38566 5.44252Z" fill="#5767FF"/>
<path fill-rule="evenodd" clip-rule="evenodd" d="M17.8157 66.2888H25.224C26.348 66.2888 27.2675 67.2138 27.2675 68.344V69.5765C27.2675 70.7067 26.3478 71.6317 25.224 71.6317H17.8157C16.6919 71.6317 15.7722 70.7069 15.7722 69.5765V68.344C15.7722 67.2136 16.6917 66.2888 17.8157 66.2888Z" fill="white"/>
<path fill-rule="evenodd" clip-rule="evenodd" d="M18.4775 1.76187C19.0147 1.76187 19.4503 2.19979 19.4503 2.74003C19.4503 3.28043 19.0147 3.71836 18.4775 3.71836C17.9403 3.71836 17.5049 3.28043 17.5049 2.74003C17.5049 2.19979 17.9403 1.76187 18.4775 1.76187ZM24.0743 1.76187C24.6116 1.76187 25.047 2.19979 25.047 2.74003C25.047 3.28043 24.6116 3.71836 24.0743 3.71836C23.5372 3.71836 23.1017 3.28043 23.1017 2.74003C23.1017 2.19979 23.5372 1.76187 24.0743 1.76187ZM21.2759 1.76187C21.8132 1.76187 22.2487 2.19979 22.2487 2.74003C22.2487 3.28043 21.8132 3.71836 21.2759 3.71836C20.7388 3.71836 20.3032 3.28043 20.3032 2.74003C20.3031 2.19979 20.7387 1.76187 21.2759 1.76187Z" fill="url(#paint0_linear_2669_11082)"/>
<path fill-rule="evenodd" clip-rule="evenodd" d="M18.4775 1.96002C18.0491 1.96002 17.7019 2.30928 17.7019 2.74002C17.7019 3.171 18.0491 3.52017 18.4775 3.52017C18.9059 3.52017 19.2531 3.17092 19.2531 2.74002C19.2531 2.30928 18.9059 1.96002 18.4775 1.96002ZM24.0743 1.96002C23.6459 1.96002 23.2987 2.30928 23.2987 2.74002C23.2987 3.171 23.6459 3.52017 24.0743 3.52017C24.5028 3.52017 24.85 3.17092 24.85 2.74002C24.85 2.30928 24.5028 1.96002 24.0743 1.96002ZM21.2759 1.96002C20.8476 1.96002 20.5003 2.30928 20.5003 2.74002C20.5003 3.171 20.8476 3.52017 21.2759 3.52017C21.7043 3.52017 22.0516 3.17092 22.0516 2.74002C22.0516 2.30928 21.7043 1.96002 21.2759 1.96002Z" fill="#231916"/>
<defs>
<linearGradient id="paint0_linear_2669_11082" x1="21.276" y1="3.71831" x2="21.276" y2="1.76186" gradientUnits="userSpaceOnUse">
<stop stop-color="#9E9E9F"/>
<stop offset="0.44" stop-color="#473D3A"/>
<stop offset="1" stop-color="white"/>
</linearGradient>
</defs>
</svg>
