<svg width="166" height="166" viewBox="0 0 166 166" fill="none" xmlns="http://www.w3.org/2000/svg">
<path d="M165 83.0895C165 128.88 128.064 166 82.5015 166C36.9388 166 -0.377472 128.878 0.00288208 83.0896C0.389231 36.5753 38.6346 -2.999 82.5015 0.179068C127.946 3.47126 165 37.2993 165 83.0895Z" fill="#E5E7FF"/>
<g clip-path="url(#clip0_2121_7166)">
<path fill-rule="evenodd" clip-rule="evenodd" d="M119.483 58.9642H47.4908V48.4985H113.785C116.908 48.4985 119.483 51.0458 119.483 54.2017V58.9642Z" fill="#2E41F5"/>
<path fill-rule="evenodd" clip-rule="evenodd" d="M55.9832 54.0911H111.319C112.361 54.0911 113.182 54.9769 113.182 56.0292V58.9641H55.9832V54.0911Z" fill="#EAECFF"/>
<path fill-rule="evenodd" clip-rule="evenodd" d="M67.9271 58.9642H121.017C125.455 58.9642 129.016 62.563 129.016 67.048V117.714C129.016 122.199 125.455 125.798 121.017 125.798H31.0541C26.616 125.798 23 122.199 23 117.714V49.8828C23 46.6712 25.6301 44.0134 28.8075 44.0134H57.3529C60.5307 44.0134 61.6808 47.0589 63.1605 49.8828L67.9271 58.9642Z" fill="#5767FF"/>
<path fill-rule="evenodd" clip-rule="evenodd" d="M129.016 113.118V117.714C129.016 122.199 125.455 125.798 121.017 125.798H31.0541C26.616 125.798 23 122.199 23 117.714V113.118H129.016Z" fill="#2E41F5"/>
<path fill-rule="evenodd" clip-rule="evenodd" d="M119.538 84.6013C132.523 84.6013 142.987 95.2325 142.987 108.3C142.987 121.424 132.523 132 119.538 132C106.608 132 96.0884 121.424 96.0884 108.3C96.0884 95.2325 106.608 84.6013 119.538 84.6013Z" fill="#FFEEEA"/>
<path fill-rule="evenodd" clip-rule="evenodd" d="M128.523 96.3405L131.427 99.2198C132.194 100.05 132.194 101.379 131.427 102.154L125.345 108.301L131.427 114.447C132.194 115.278 132.194 116.551 131.427 117.381L128.523 120.316C127.701 121.092 126.442 121.092 125.619 120.316L119.538 114.171L113.456 120.316C112.689 121.092 111.375 121.092 110.553 120.316L107.703 117.381C106.882 116.551 106.882 115.278 107.703 114.447L113.73 108.301L107.703 102.154C106.882 101.379 106.882 100.05 107.703 99.2198L110.553 96.3405C111.375 95.5099 112.689 95.5099 113.456 96.3405L119.538 102.431L125.619 96.3405C126.442 95.5099 127.701 95.5099 128.523 96.3405Z" fill="#FF3300"/>
</g>
<defs>
<clipPath id="clip0_2121_7166">
<rect width="120" height="88" fill="white" transform="translate(23 44)"/>
</clipPath>
</defs>
</svg>
