<svg width="183" height="160" viewBox="0 0 183 160" fill="none" xmlns="http://www.w3.org/2000/svg">
<path fill-rule="evenodd" clip-rule="evenodd" d="M7.17986 132.375C-3.20953 112.314 -2.59086 80.4198 10.7858 64.4743C23.0598 49.8467 41.1282 51.7231 55.4582 41.7383C69.4177 32.009 79.017 11.5645 93.5098 3.63192C106.209 -3.31886 120.584 0.601645 133.197 7.87153C146.809 15.7167 159.533 27.6017 168.71 44.1058C177.886 60.6097 183.269 82.0048 181.81 103.072C180.351 124.139 171.503 144.404 158.199 153.275C148.025 160.058 136.383 159.942 125.179 159.699C111.146 159.396 97.111 159.09 78.0187 158.799C53.4074 158.422 23.9617 164.78 7.17986 132.375Z" fill="#E6E8FF"/>
<path fill-rule="evenodd" clip-rule="evenodd" d="M122.23 48.3469L122.973 47.8714C122.982 47.8697 122.991 47.8676 123.002 47.8655C125.555 47.1901 134.141 46.1899 142.268 44.0681C166.392 37.7682 151.73 13.9547 134.76 31.8823C130.088 36.8186 126 42.7162 123.523 46.4061C123.025 47.1524 122.59 47.8073 122.23 48.3469Z" fill="#0013CB"/>
<path fill-rule="evenodd" clip-rule="evenodd" d="M112.68 57.7278C119.826 51.2502 125.843 45.4934 133.358 40.1472C133.554 40.0976 133.749 40.0482 133.944 40.0102C134.237 39.9463 134.527 39.8873 134.815 39.8261C135.39 39.7072 135.95 39.5732 136.501 39.4728C137.053 39.3768 137.591 39.2846 138.108 39.1962C138.367 39.1499 138.623 39.1046 138.875 39.0613C139.126 39.0267 139.375 38.9963 139.614 38.9627C140.102 38.8982 140.566 38.837 141.006 38.7779C141.228 38.7413 141.444 38.7209 141.654 38.7042C141.865 38.686 142.068 38.6681 142.266 38.6496C143.057 38.5877 143.746 38.495 144.322 38.4886C144.896 38.4688 145.348 38.4428 145.655 38.4269C145.922 38.4144 146.083 38.4063 146.119 38.4053C146.084 38.402 145.924 38.3892 145.655 38.3707C145.348 38.3517 144.897 38.315 144.324 38.2827C143.754 38.234 143.055 38.2491 142.25 38.2536C142.047 38.2536 141.842 38.255 141.625 38.2555C141.412 38.2567 141.192 38.2606 140.969 38.2764C140.518 38.3074 140.046 38.3373 139.552 38.3693C139.305 38.3866 139.053 38.4036 138.796 38.4206C138.541 38.4494 138.279 38.4782 138.015 38.5073C137.485 38.5718 136.938 38.6363 136.375 38.708C135.971 38.7619 135.562 38.8333 135.145 38.9042C135.446 38.6987 135.751 38.4936 136.058 38.2892C136.329 38.11 136.605 37.9438 136.877 37.7727C137.418 37.4309 137.959 37.0901 138.489 36.7552C139.033 36.4369 139.567 36.1207 140.094 35.8137C140.36 35.6612 140.617 35.4979 140.883 35.3586C141.146 35.214 141.408 35.0743 141.666 34.9334C142.184 34.6553 142.683 34.3666 143.183 34.1128C143.685 33.8632 144.175 33.6214 144.646 33.3886C144.881 33.2704 145.113 33.1536 145.343 33.0399C145.574 32.9352 145.804 32.835 146.024 32.7345C146.473 32.5334 146.901 32.3419 147.306 32.1595C147.509 32.061 147.71 31.9799 147.906 31.9038C148.103 31.8261 148.293 31.7508 148.478 31.6766C149.219 31.3911 149.854 31.1053 150.404 30.935C150.948 30.752 151.375 30.5977 151.664 30.4951C151.917 30.4066 152.069 30.3531 152.103 30.3415C152.068 30.3486 151.911 30.3819 151.649 30.441C151.349 30.5102 150.906 30.6041 150.347 30.7367C149.787 30.8526 149.121 31.067 148.351 31.3013C148.156 31.3591 147.96 31.4192 147.752 31.4819C147.548 31.5438 147.338 31.6104 147.129 31.6891C146.705 31.8475 146.261 32.0113 145.796 32.1828C145.564 32.2703 145.327 32.3584 145.086 32.448C144.849 32.5488 144.607 32.6509 144.361 32.7543C143.871 32.968 143.366 33.1857 142.846 33.4152C142.329 33.6473 141.811 33.9153 141.274 34.1732C141.164 34.226 141.054 34.2791 140.944 34.3332L141.358 33.9245C141.546 33.735 141.731 33.5481 141.913 33.3653C142.087 33.1741 142.257 32.9873 142.425 32.8037C142.759 32.4363 143.077 32.084 143.383 31.7492C143.535 31.5839 143.675 31.4138 143.809 31.2471C143.945 31.0772 144.074 30.9169 144.202 30.7574C144.707 30.1287 145.156 29.5889 145.475 29.1113C145.808 28.6409 146.061 28.264 146.238 28.0109C146.392 27.7887 146.482 27.6547 146.501 27.6254C146.477 27.6528 146.371 27.7739 146.194 27.9761C145.99 28.2068 145.687 28.546 145.313 28.9839C144.949 29.432 144.446 29.9153 143.904 30.4977C143.766 30.6414 143.625 30.7901 143.479 30.9442C143.334 31.0984 143.184 31.2555 143.017 31.4066C142.696 31.7156 142.358 32.0415 142.003 32.3839C141.828 32.5511 141.649 32.7273 141.465 32.9022C141.274 33.0733 141.079 33.246 140.881 33.4199C140.489 33.7712 140.081 34.1358 139.662 34.5091C139.24 34.8795 138.786 35.2351 138.334 35.6123C138.181 35.7385 138.028 35.8664 137.873 35.9945C137.365 36.2935 136.857 36.6029 136.346 36.9182C136.071 37.0894 135.788 37.2547 135.513 37.4336C135.241 37.6132 134.966 37.7941 134.691 37.9751C127.867 42.5645 117.501 51.5614 112.309 56.5262C111.811 57.2727 113.04 57.1879 112.68 57.7278Z" fill="#6F8A31"/>
<path fill-rule="evenodd" clip-rule="evenodd" d="M122.129 45.7319L122.283 45.0723C122.287 45.0667 122.291 45.0605 122.297 45.053C123.337 43.3115 127.514 38.1504 130.842 32.6217C140.721 16.2085 120.036 11.0297 120.254 29.9742C120.314 35.1904 121.205 40.6196 121.807 43.9729C121.93 44.6496 122.04 45.2427 122.129 45.7319Z" fill="#8792FF"/>
<path fill-rule="evenodd" clip-rule="evenodd" d="M121.876 56.005C122.353 48.615 122.594 42.2263 123.874 35.2587C123.955 35.1263 124.036 34.9945 124.123 34.8688C124.249 34.6764 124.378 34.488 124.503 34.2999C124.755 33.9258 124.99 33.5517 125.24 33.2002C125.491 32.8512 125.737 32.5119 125.974 32.1853C126.091 32.021 126.207 31.8586 126.323 31.6991C126.442 31.5458 126.562 31.3954 126.675 31.2484C126.908 30.9511 127.13 30.6685 127.34 30.3992C127.442 30.26 127.55 30.133 127.656 30.0111C127.762 29.8874 127.864 29.7685 127.963 29.6523C128.363 29.1933 128.692 28.7721 129.005 28.4594C129.308 28.1403 129.543 27.8828 129.702 27.7095C129.842 27.559 129.926 27.4685 129.945 27.4484C129.924 27.4654 129.83 27.5446 129.672 27.6785C129.494 27.8331 129.227 28.0552 128.896 28.3453C128.558 28.6246 128.182 29.0089 127.744 29.4434C127.632 29.5526 127.52 29.6637 127.402 29.7804C127.286 29.8952 127.167 30.0158 127.053 30.1442C126.822 30.4035 126.579 30.6736 126.326 30.9563C126.199 31.0988 126.07 31.2432 125.938 31.3908C125.814 31.5435 125.686 31.6996 125.556 31.8578C125.299 32.1782 125.034 32.5071 124.764 32.8486C124.571 33.0953 124.384 33.3544 124.193 33.6173C124.249 33.3424 124.308 33.0667 124.368 32.7894C124.42 32.546 124.483 32.3065 124.542 32.0662C124.657 31.5885 124.773 31.111 124.886 30.6425C125.015 30.1759 125.139 29.7155 125.265 29.264C125.33 29.0379 125.384 28.8103 125.456 28.5909C125.523 28.3703 125.593 28.1529 125.66 27.9369C125.796 27.5063 125.916 27.0802 126.055 26.672C126.198 26.2658 126.338 25.8701 126.473 25.4893C126.539 25.2983 126.604 25.1093 126.67 24.9236C126.741 24.7424 126.813 24.564 126.881 24.3906C127.02 24.0391 127.153 23.7045 127.278 23.3865C127.337 23.224 127.404 23.0715 127.472 22.9239C127.538 22.7755 127.603 22.6321 127.664 22.4926C127.919 21.9376 128.115 21.44 128.326 21.0508C128.528 20.6582 128.68 20.3444 128.784 20.1328C128.875 19.9482 128.93 19.8376 128.943 19.813C128.928 19.8352 128.859 19.9381 128.746 20.1115C128.619 20.3106 128.426 20.5999 128.19 20.9726C127.945 21.3371 127.693 21.8129 127.396 22.3545C127.319 22.4911 127.244 22.6296 127.163 22.7755C127.084 22.919 127.005 23.0681 126.932 23.2239C126.783 23.5384 126.627 23.8667 126.463 24.2101C126.382 24.3831 126.3 24.5582 126.215 24.7374C126.138 24.9196 126.06 25.106 125.98 25.2945C125.825 25.6748 125.663 26.066 125.5 26.4708C125.34 26.8762 125.198 27.3009 125.041 27.7312C125.009 27.8189 124.977 27.9071 124.945 27.9959L124.955 27.5495C124.957 27.3448 124.96 27.1424 124.962 26.9447C124.956 26.7464 124.95 26.5526 124.945 26.3614C124.933 25.9811 124.92 25.6169 124.91 25.269C124.905 25.097 124.892 24.9282 124.877 24.7648C124.861 24.5987 124.847 24.4413 124.832 24.2855C124.775 23.6692 124.735 23.132 124.656 22.6992C124.588 22.2626 124.527 21.9197 124.49 21.6857C124.456 21.4815 124.434 21.3598 124.429 21.3333C124.431 21.3607 124.436 21.4843 124.447 21.6904C124.458 21.9261 124.472 22.275 124.499 22.7159C124.537 23.1574 124.518 23.6926 124.531 24.3033C124.531 24.4562 124.533 24.6134 124.535 24.7762C124.537 24.9384 124.538 25.1052 124.527 25.278C124.515 25.6198 124.503 25.98 124.49 26.3582C124.483 26.5442 124.478 26.7371 124.471 26.9314C124.457 27.128 124.441 27.3277 124.426 27.529C124.397 27.9322 124.367 28.3513 124.336 28.781C124.301 29.2111 124.241 29.6498 124.194 30.0994C124.177 30.2507 124.161 30.4031 124.144 30.5565C124.024 30.9933 123.91 31.4359 123.797 31.883C123.737 32.1254 123.67 32.3675 123.614 32.6134C123.561 32.858 123.506 33.1051 123.451 33.3521C122.148 39.534 121.243 50.0347 121.034 55.5459C121.157 56.2224 121.786 55.5156 121.876 56.005Z" fill="#6F8A31"/>
<path fill-rule="evenodd" clip-rule="evenodd" d="M122.907 49.2592L123.65 48.7837C123.659 48.7822 123.668 48.7798 123.679 48.7778C126.232 48.1023 134.818 47.1021 142.945 44.9804C167.069 38.6807 152.407 14.867 135.437 32.7945C130.765 37.7309 126.677 43.6287 124.201 47.3183C123.702 48.0647 123.267 48.7195 122.907 49.2592Z" fill="#5767FF"/>
<path fill-rule="evenodd" clip-rule="evenodd" d="M113.357 58.64C120.503 52.1623 126.52 46.4054 134.035 41.0595C134.231 41.0098 134.425 40.9606 134.621 40.9224C134.914 40.8585 135.204 40.7995 135.492 40.7382C136.067 40.6193 136.627 40.4854 137.179 40.3849C137.73 40.2889 138.268 40.197 138.786 40.1083C139.044 40.0623 139.3 40.0167 139.553 39.9734C139.803 39.939 140.052 39.9084 140.291 39.8749C140.779 39.8104 141.243 39.7492 141.683 39.69C141.905 39.6534 142.121 39.6331 142.331 39.6163C142.542 39.5981 142.745 39.5802 142.943 39.5616C143.734 39.4998 144.423 39.407 144.999 39.4007C145.573 39.3809 146.025 39.3549 146.332 39.3391C146.599 39.3265 146.76 39.3184 146.796 39.3173C146.761 39.3142 146.601 39.3013 146.332 39.2827C146.025 39.2637 145.574 39.2271 145.001 39.1947C144.431 39.146 143.732 39.1611 142.927 39.1656C142.724 39.1656 142.519 39.167 142.302 39.1678C142.089 39.1687 141.869 39.1728 141.646 39.1884C141.195 39.2194 140.723 39.2493 140.229 39.2812C139.981 39.2985 139.73 39.3158 139.473 39.3324C139.218 39.3613 138.956 39.3901 138.692 39.4192C138.162 39.4837 137.615 39.5482 137.052 39.6199C136.648 39.6738 136.239 39.7455 135.822 39.8161C136.124 39.6104 136.428 39.4055 136.735 39.2013C137.006 39.0221 137.281 38.8557 137.554 38.6846C138.095 38.3428 138.636 38.002 139.166 37.6671C139.71 37.3488 140.244 37.0326 140.771 36.7256C141.037 36.5731 141.294 36.4098 141.56 36.2708C141.823 36.1259 142.085 35.9862 142.343 35.8453C142.861 35.5672 143.36 35.2785 143.86 35.0247C144.362 34.7753 144.852 34.5334 145.323 34.3006C145.558 34.1824 145.791 34.0657 146.02 33.9519C146.251 33.8472 146.48 33.747 146.701 33.6465C147.15 33.4454 147.577 33.2539 147.983 33.0714C148.185 32.9728 148.386 32.8918 148.583 32.8159C148.78 32.738 148.97 32.6627 149.154 32.5886C149.896 32.3032 150.531 32.0173 151.081 31.8467C151.625 31.664 152.052 31.5097 152.341 31.4072C152.594 31.3186 152.746 31.2651 152.78 31.2536C152.745 31.2606 152.588 31.2939 152.325 31.353C152.026 31.4224 151.583 31.5161 151.024 31.6487C150.464 31.7647 149.798 31.9791 149.028 32.2133C148.833 32.2712 148.636 32.3312 148.429 32.3939C148.225 32.4559 148.015 32.5224 147.806 32.6011C147.382 32.7595 146.938 32.9233 146.473 33.095C146.241 33.1824 146.005 33.2706 145.763 33.3604C145.526 33.4609 145.284 33.5629 145.038 33.6665C144.548 33.8801 144.042 34.0978 143.523 34.3273C143.006 34.5594 142.488 34.8274 141.95 35.0854C141.841 35.1381 141.731 35.1915 141.621 35.2454L142.035 34.8367C142.223 34.6473 142.409 34.4602 142.59 34.2774C142.764 34.0862 142.934 33.8994 143.103 33.7159C143.436 33.3484 143.754 32.9963 144.06 32.6616C144.212 32.496 144.352 32.3259 144.486 32.1593C144.622 31.9896 144.751 31.829 144.879 31.6696C145.385 31.0408 145.833 30.501 146.152 30.0235C146.485 29.5531 146.738 29.1761 146.915 28.9231C147.069 28.7008 147.159 28.5671 147.178 28.5375C147.155 28.5649 147.048 28.686 146.871 28.8882C146.668 29.1189 146.365 29.4581 145.991 29.896C145.626 30.3441 145.123 30.8274 144.581 31.4101C144.443 31.5536 144.302 31.7022 144.156 31.8563C144.011 32.0109 143.861 32.1676 143.694 32.3188C143.373 32.6278 143.035 32.9536 142.68 33.296C142.505 33.4632 142.326 33.6395 142.142 33.8143C141.951 33.9855 141.755 34.1581 141.558 34.3321C141.166 34.6833 140.758 35.048 140.339 35.4212C139.917 35.7915 139.463 36.1472 139.011 36.5245C138.858 36.6507 138.705 36.7785 138.55 36.9067C138.042 37.2057 137.534 37.5151 137.023 37.8303C136.747 38.0017 136.465 38.167 136.19 38.3458C135.918 38.5254 135.643 38.7062 135.368 38.8872C128.544 43.4767 118.178 52.4735 112.986 57.4384C112.488 58.185 113.717 58.1005 113.357 58.64Z" fill="#0013CB"/>
<path fill-rule="evenodd" clip-rule="evenodd" d="M122.806 46.6441L122.96 45.9846C122.964 45.9789 122.968 45.9728 122.974 45.9652C124.014 44.2238 128.19 39.0627 131.518 33.534C141.398 17.1208 120.712 11.9419 120.931 30.8864C120.991 36.1026 121.882 41.5318 122.484 44.8852C122.607 45.5619 122.716 46.1549 122.806 46.6441Z" fill="#AEB6FF"/>
<path fill-rule="evenodd" clip-rule="evenodd" d="M122.553 56.9173C123.03 49.5272 123.271 43.1386 124.551 36.1708C124.633 36.0384 124.713 35.9066 124.8 35.7809C124.927 35.5884 125.055 35.4001 125.18 35.212C125.432 34.8378 125.667 34.4637 125.917 34.1123C126.168 33.7634 126.414 33.424 126.651 33.0974C126.768 32.933 126.884 32.7707 126.999 32.6115C127.118 32.4579 127.239 32.3075 127.352 32.1606C127.585 31.8635 127.807 31.5806 128.017 31.3114C128.119 31.1723 128.227 31.0453 128.333 30.9231C128.439 30.7997 128.541 30.6808 128.639 30.5645C129.04 30.1053 129.369 29.6844 129.681 29.3717C129.985 29.0526 130.22 28.7951 130.379 28.622C130.519 28.4712 130.603 28.3807 130.622 28.3605C130.601 28.3778 130.506 28.4567 130.349 28.5908C130.171 28.7453 129.904 28.9675 129.573 29.2575C129.235 29.5368 128.859 29.9212 128.421 30.3556C128.309 30.4648 128.197 30.5759 128.079 30.6927C127.962 30.8077 127.844 30.928 127.73 31.0564C127.499 31.3156 127.256 31.5858 127.003 31.8685C126.876 32.011 126.747 32.1554 126.615 32.3029C126.491 32.4559 126.363 32.6119 126.233 32.77C125.977 33.0903 125.711 33.4192 125.441 33.7609C125.248 34.0075 125.061 34.2664 124.87 34.5295C124.926 34.2545 124.985 33.9788 125.044 33.7018C125.098 33.4581 125.161 33.2187 125.219 32.9783C125.334 32.5007 125.45 32.0231 125.563 31.5546C125.691 31.088 125.816 30.6279 125.942 30.1762C126.007 29.95 126.061 29.7224 126.133 29.503C126.2 29.2825 126.27 29.0651 126.337 28.8491C126.473 28.4185 126.593 27.9924 126.732 27.5842C126.875 27.1779 127.015 26.7822 127.15 26.4014C127.216 26.2105 127.281 26.0214 127.347 25.8357C127.418 25.6546 127.49 25.4761 127.558 25.303C127.697 24.9512 127.83 24.6166 127.955 24.2987C128.014 24.1361 128.081 23.9837 128.149 23.8362C128.215 23.6877 128.28 23.5444 128.341 23.4048C128.596 22.8498 128.792 22.3524 129.003 21.9634C129.205 21.5706 129.356 21.2568 129.461 21.0452C129.552 20.8608 129.607 20.75 129.62 20.7254C129.605 20.7476 129.536 20.8505 129.424 21.0239C129.296 21.223 129.103 21.5122 128.867 21.885C128.622 22.2494 128.37 22.7252 128.073 23.2669C127.997 23.4034 127.921 23.5419 127.84 23.6877C127.761 23.8312 127.681 23.9803 127.609 24.1361C127.46 24.4506 127.304 24.7789 127.141 25.1223C127.059 25.2954 126.977 25.4705 126.892 25.6497C126.815 25.8319 126.737 26.0181 126.657 26.2068C126.502 26.587 126.34 26.9782 126.177 27.3831C126.017 27.7883 125.876 28.2132 125.718 28.6435C125.686 28.7314 125.654 28.8196 125.622 28.9082L125.632 28.4617C125.634 28.2571 125.637 28.0547 125.639 27.8569C125.633 27.6587 125.627 27.4647 125.622 27.2736C125.61 26.8934 125.597 26.5292 125.587 26.1812C125.582 26.0091 125.569 25.8404 125.554 25.677C125.538 25.5108 125.524 25.3535 125.509 25.1976C125.452 24.5813 125.412 24.0441 125.333 23.6111C125.265 23.1747 125.204 22.8318 125.167 22.5981C125.133 22.3936 125.111 22.2719 125.106 22.2454C125.108 22.2728 125.114 22.3965 125.124 22.6025C125.135 22.8382 125.149 23.187 125.177 23.6281C125.215 24.0695 125.196 24.6047 125.207 25.2154C125.208 25.3684 125.21 25.5254 125.212 25.6884C125.214 25.8508 125.215 26.0173 125.204 26.1901C125.192 26.5319 125.18 26.8921 125.168 27.2703C125.16 27.4563 125.155 27.6492 125.148 27.8436C125.134 28.0401 125.119 28.2398 125.103 28.4414C125.074 28.8446 125.044 29.2634 125.013 29.6931C124.978 30.1232 124.918 30.562 124.871 31.0114C124.854 31.1627 124.838 31.3151 124.821 31.4685C124.702 31.9052 124.587 32.3479 124.475 32.7951C124.414 33.0374 124.347 33.2795 124.292 33.5254C124.238 33.7703 124.183 34.0171 124.128 34.264C122.825 40.4459 121.92 50.9466 121.711 56.4579C121.835 57.1348 122.463 56.4278 122.553 56.9173Z" fill="#8792FF"/>
<path fill-rule="evenodd" clip-rule="evenodd" d="M33.0881 90.1667C34.4941 94.9372 37.0632 97.3555 40.7954 97.4212C49.7615 95.3389 57.8584 96.5416 65.0866 101.029C65.7949 100.473 65.6665 99.642 64.7007 98.5366C51.3976 82.3535 38.8496 76.0871 27.0573 79.737C24.0591 80.6649 19.3947 82.42 20.3178 86.4561C21.4577 91.4398 25.4909 90.6134 29.1503 90.158C30.5862 89.9794 31.9644 89.8578 33.0881 90.1667Z" fill="#8792FF"/>
<path fill-rule="evenodd" clip-rule="evenodd" d="M52.9023 65.2332C57.715 66.3866 60.2554 68.8351 60.523 72.5794C58.9422 81.6963 60.5752 89.7626 65.4226 96.7781C64.9087 97.5196 64.077 97.4354 62.9273 96.5257C46.138 84.0441 39.2358 71.7828 42.22 59.7426C42.9787 56.6815 44.4678 51.902 48.5253 52.6101C53.5351 53.4843 52.9335 57.5795 52.6799 61.2791C52.5805 62.7308 52.5345 64.1216 52.9023 65.2332Z" fill="#0013CC"/>
<path fill-rule="evenodd" clip-rule="evenodd" d="M33.379 88.6917C34.785 93.4622 37.3541 95.8805 41.086 95.9463C50.0521 93.864 58.1492 95.0665 65.3775 99.554C66.0858 98.9978 65.957 98.1669 64.9916 97.0615C51.6885 80.8785 39.1406 74.612 27.3481 78.2619C24.3499 79.19 19.6855 80.9449 20.6086 84.9811C21.7484 89.9648 25.7817 89.1385 29.4411 88.683C30.8772 88.5043 32.2556 88.3829 33.379 88.6917Z" fill="#AEB6FF"/>
<path fill-rule="evenodd" clip-rule="evenodd" d="M53.1933 63.7582C58.006 64.9116 60.5461 67.3602 60.814 71.1044C59.2329 80.2213 60.8662 88.2876 65.7136 95.3032C65.1996 96.0446 64.368 95.9605 63.2183 95.0505C46.429 82.5691 39.5265 70.3079 42.5108 58.2676C43.2693 55.2063 44.7588 50.4269 48.8161 51.135C53.826 52.0092 53.2244 56.1045 52.9708 59.8041C52.8713 61.256 52.8255 62.6466 53.1933 63.7582Z" fill="#5767FF"/>
<path fill-rule="evenodd" clip-rule="evenodd" d="M60.748 94.5324L59.8761 94.2557C59.8658 94.2557 59.8574 94.2546 59.846 94.2567C59.293 93.9821 58.7142 93.7009 58.1186 93.4056C57.8549 93.2804 57.5955 93.1422 57.3223 93.0196C57.0488 92.8954 56.7732 92.7725 56.4961 92.6423C55.9408 92.3865 55.3725 92.1265 54.7964 91.8604C53.6281 91.3612 52.4299 90.8271 51.1891 90.3373C50.568 90.0932 49.9515 89.8249 49.3192 89.5932C48.6884 89.3593 48.0522 89.1244 47.4186 88.8907C46.7851 88.6461 46.1412 88.4433 45.5047 88.2189C45.1859 88.1108 44.8702 88.0005 44.5518 87.8933C44.2334 87.7858 43.9114 87.6954 43.5937 87.5943C42.961 87.3977 42.3275 87.2018 41.7047 87.0091C41.0762 86.8342 40.4548 86.6641 39.8444 86.4975C39.537 86.4166 39.2377 86.3207 38.9356 86.2531C38.6317 86.1789 38.3302 86.1093 38.0344 86.0373C37.4416 85.8975 36.8641 85.7434 36.2954 85.6218C35.7243 85.5085 35.1708 85.3979 34.6352 85.2913C34.3685 85.2349 34.1033 85.1815 33.8418 85.1302C33.5836 85.0869 33.327 85.0478 33.078 85.0077C32.5753 84.9259 32.0955 84.8492 31.6414 84.7737C31.4097 84.7309 31.1877 84.7038 30.969 84.681C30.7525 84.6545 30.5414 84.6307 30.3359 84.6054C29.5172 84.5183 28.804 84.404 28.2063 84.3808C27.6118 84.3456 27.1441 84.3039 26.8259 84.2797C26.5493 84.2582 26.3822 84.2448 26.3459 84.2437C26.3821 84.2393 26.5477 84.232 26.8263 84.2206C27.1464 84.2102 27.6164 84.185 28.209 84.1675C28.8047 84.1323 29.5292 84.1681 30.3625 84.1954C30.5736 84.2005 30.7871 84.2084 31.0121 84.2156C31.2323 84.2225 31.4614 84.2329 31.6913 84.2564C32.1596 84.2997 32.6491 84.3435 33.1605 84.3927C33.4157 84.4163 33.678 84.4416 33.9417 84.4662C34.2066 84.5032 34.4775 84.5401 34.7521 84.5777C35.2998 84.6592 35.8653 84.7432 36.4455 84.8332C37.0267 84.9279 37.6182 85.0546 38.2251 85.1697C38.8353 85.2843 39.4516 85.4101 40.0755 85.5739C40.6973 85.7265 41.3321 85.8833 41.9753 86.0406C42.6124 86.2146 43.2531 86.4031 43.8979 86.5949C44.221 86.6929 44.5491 86.7833 44.8696 86.8896C45.1925 86.9958 45.5164 87.103 45.8393 87.2091C46.4842 87.4315 47.1417 87.6299 47.7819 87.8711C48.4223 88.1134 49.0628 88.3569 49.7011 88.6C50.3382 88.8387 50.9596 89.1166 51.5837 89.3712C51.8956 89.4996 52.206 89.6272 52.5135 89.7574C52.8202 89.8857 53.1195 90.034 53.4197 90.1707C54.0182 90.4483 54.6107 90.725 55.1945 90.9943C55.7688 91.2765 56.3325 91.5589 56.8825 91.8404C57.1579 91.9811 57.4291 92.1206 57.6977 92.2586C57.9665 92.3966 58.2248 92.5449 58.4833 92.6866C58.6345 92.7696 58.7841 92.8528 58.9342 92.9339C59.6313 93.5488 60.2455 94.0868 60.748 94.5324Z" fill="#8792FF"/>
<path fill-rule="evenodd" clip-rule="evenodd" d="M62.1188 89.7489L61.6937 88.9349C61.692 88.9246 61.6897 88.9165 61.6892 88.9052C61.3231 88.4064 60.9455 87.8829 60.5512 87.3456C60.3822 87.1066 60.2011 86.8743 60.0328 86.6257C59.8631 86.3769 59.6939 86.1256 59.5177 85.8743C59.169 85.37 58.8141 84.8534 58.4518 84.33C57.7566 83.262 57.022 82.17 56.3236 81.0285C55.9746 80.4567 55.6032 79.894 55.2646 79.3091C54.9243 78.726 54.5819 78.1378 54.2411 77.552C53.8898 76.968 53.5773 76.3665 53.2453 75.776C53.0831 75.4797 52.9196 75.1866 52.758 74.8905C52.5968 74.5941 52.4513 74.2916 52.2964 73.9949C51.9918 73.4034 51.6883 72.8109 51.3896 72.2285C51.1073 71.6377 50.8308 71.0522 50.5599 70.4773C50.4264 70.1873 50.2795 69.9083 50.1601 69.621C50.0337 69.3334 49.9124 69.0472 49.7895 68.7669C49.5479 68.2051 49.295 67.6604 49.0756 67.1191C48.8636 66.5739 48.6575 66.0456 48.4587 65.5344C48.3563 65.2803 48.2571 65.0272 48.1607 64.7776C48.0729 64.5294 47.9891 64.2821 47.9057 64.043C47.7367 63.56 47.577 63.0984 47.423 62.6623C47.34 62.4406 47.2742 62.2254 47.2134 62.0131C47.1492 61.8037 47.0886 61.5987 47.0276 61.4C46.7977 60.6047 46.5594 59.919 46.431 59.3315C46.2914 58.7491 46.1683 58.2937 46.0882 57.9831C46.0182 57.7131 45.9754 57.5501 45.9683 57.5141C45.9702 57.5509 45.9922 57.716 46.0303 57.994C46.0768 58.3126 46.1351 58.7822 46.2228 59.3722C46.2936 59.968 46.4569 60.6787 46.6307 61.4989C46.6732 61.707 46.7187 61.917 46.7654 62.1385C46.8112 62.3552 46.8617 62.5803 46.9254 62.8036C47.0508 63.2595 47.1799 63.7362 47.3183 64.2338C47.3867 64.4821 47.4579 64.7374 47.5284 64.9943C47.6117 65.2498 47.6956 65.5114 47.781 65.7764C47.9575 66.3044 48.1397 66.8492 48.3302 67.4076C48.5257 67.9661 48.7544 68.5292 48.9741 69.1095C49.1941 69.6933 49.4263 70.2811 49.697 70.8697C49.9562 71.4585 50.2217 72.059 50.4895 72.6678C50.7724 73.2676 51.0704 73.8684 51.3718 74.4731C51.525 74.7753 51.6714 75.0843 51.8318 75.3828C51.9931 75.6839 52.1553 75.9852 52.3163 76.2864C52.6478 76.8853 52.9582 77.5012 53.3077 78.0921C53.6578 78.6832 54.0092 79.274 54.3604 79.8629C54.7066 80.4515 55.0883 81.0172 55.4478 81.5902C55.6285 81.8761 55.8082 82.1607 55.9901 82.4423C56.1699 82.723 56.3677 82.9932 56.5546 83.2662C56.932 83.8098 57.3078 84.3473 57.6744 84.8775C58.052 85.3963 58.428 85.9042 58.8008 86.3989C58.9871 86.6468 59.1719 86.8904 59.3541 87.1321C59.5369 87.3739 59.7277 87.6031 59.9119 87.834C60.0198 87.9689 60.1276 88.1023 60.2336 88.2367C60.9589 88.8174 61.5938 89.3306 62.1188 89.7489Z" fill="#0013CC"/>
<path fill-rule="evenodd" clip-rule="evenodd" d="M137.86 91.9203C132.906 92.7678 130.17 95.0801 129.652 98.8569C130.653 108.202 128.465 116.268 123.09 123.054C123.561 123.84 124.41 123.81 125.635 122.965C143.474 111.436 151.278 99.4701 149.048 87.0686C148.481 83.9154 147.287 78.9722 143.128 79.4192C137.993 79.9711 138.333 84.1615 138.346 87.9277C138.351 89.4055 138.306 90.8181 137.86 91.9203Z" fill="#8792FF"/>
<path fill-rule="evenodd" clip-rule="evenodd" d="M160.457 115.038C158.717 119.778 155.954 122.058 152.167 121.875C143.218 119.167 134.933 119.845 127.311 123.91C126.63 123.3 126.815 122.466 127.866 121.41C142.417 105.897 155.547 100.383 167.257 104.869C170.235 106.01 174.846 108.1 173.644 112.129C172.16 117.103 168.127 115.997 164.449 115.291C163.005 115.014 161.616 114.799 160.457 115.038Z" fill="#0013CC"/>
<path fill-rule="evenodd" clip-rule="evenodd" d="M128.686 118.968L129.069 118.118C129.07 118.107 129.072 118.098 129.072 118.087C129.414 117.559 129.766 117.006 130.134 116.438C130.292 116.186 130.462 115.939 130.618 115.677C130.775 115.415 130.932 115.15 131.096 114.885C131.42 114.353 131.75 113.809 132.086 113.256C132.729 112.132 133.41 110.981 134.051 109.782C134.371 109.182 134.715 108.59 135.024 107.976C135.335 107.365 135.647 106.748 135.958 106.134C136.281 105.521 136.562 104.893 136.864 104.274C137.011 103.964 137.16 103.658 137.306 103.348C137.453 103.038 137.582 102.722 137.722 102.412C137.996 101.794 138.269 101.176 138.538 100.567C138.789 99.9515 139.035 99.3416 139.277 98.7426C139.395 98.4409 139.527 98.1489 139.632 97.8508C139.743 97.5517 139.849 97.2543 139.957 96.9629C140.169 96.3787 140.394 95.8116 140.585 95.2497C140.768 94.6842 140.946 94.1364 141.118 93.6062C141.206 93.3426 141.292 93.0801 141.375 92.8213C141.45 92.5643 141.52 92.3088 141.59 92.0614C141.734 91.5615 141.869 91.084 141.999 90.6329C142.07 90.4031 142.124 90.181 142.174 89.9622C142.226 89.746 142.276 89.5343 142.326 89.3295C142.513 88.5094 142.714 87.8001 142.809 87.197C142.917 86.5979 143.015 86.1288 143.078 85.8091C143.134 85.5311 143.167 85.3636 143.172 85.3266C143.172 85.3639 143.16 85.5326 143.137 85.8168C143.109 86.1425 143.078 86.622 143.023 87.2254C142.986 87.8338 142.863 88.5641 142.734 89.4063C142.703 89.6196 142.67 89.8352 142.635 90.0625C142.601 90.2847 142.563 90.5161 142.512 90.7462C142.411 91.2159 142.308 91.7071 142.197 92.2197C142.142 92.4754 142.085 92.7386 142.029 93.0032C141.959 93.2672 141.89 93.5377 141.819 93.8112C141.67 94.357 141.518 94.9202 141.357 95.4976C141.192 96.0758 140.993 96.66 140.804 97.2615C140.615 97.8665 140.414 98.4763 140.174 99.0888C139.946 99.7012 139.712 100.326 139.476 100.959C139.224 101.584 138.958 102.211 138.687 102.842C138.55 103.157 138.42 103.479 138.274 103.791C138.129 104.106 137.982 104.421 137.836 104.736C137.535 105.363 137.256 106.006 136.937 106.626C136.616 107.246 136.295 107.866 135.973 108.484C135.657 109.101 135.303 109.698 134.972 110.3C134.806 110.6 134.64 110.9 134.472 111.196C134.306 111.491 134.121 111.777 133.948 112.065C133.597 112.638 133.248 113.205 132.907 113.765C132.554 114.313 132.203 114.85 131.854 115.374C131.68 115.636 131.507 115.894 131.336 116.15C131.165 116.406 130.985 116.65 130.812 116.895C130.71 117.038 130.609 117.18 130.509 117.322C129.807 117.955 129.193 118.513 128.686 118.968Z" fill="#231916"/>
<path fill-rule="evenodd" clip-rule="evenodd" d="M133.315 120.938L134.183 120.606C134.194 120.605 134.202 120.604 134.214 120.605C134.758 120.294 135.329 119.975 135.915 119.64C136.175 119.497 136.43 119.342 136.7 119.201C136.97 119.059 137.243 118.918 137.516 118.77C138.064 118.477 138.625 118.18 139.193 117.876C140.349 117.301 141.533 116.688 142.762 116.118C143.377 115.834 143.986 115.525 144.614 115.253C145.24 114.978 145.872 114.702 146.5 114.428C147.128 114.142 147.769 113.898 148.401 113.633C148.718 113.505 149.032 113.374 149.348 113.247C149.665 113.119 149.986 113.008 150.302 112.887C150.932 112.65 151.563 112.413 152.183 112.181C152.81 111.967 153.43 111.757 154.039 111.552C154.346 111.452 154.644 111.337 154.946 111.251C155.25 111.157 155.552 111.069 155.848 110.978C156.44 110.801 157.017 110.611 157.586 110.454C158.159 110.305 158.713 110.16 159.25 110.021C159.517 109.948 159.783 109.878 160.045 109.81C160.305 109.751 160.562 109.696 160.812 109.641C161.317 109.528 161.799 109.422 162.255 109.318C162.488 109.261 162.711 109.22 162.932 109.184C163.149 109.145 163.362 109.108 163.569 109.07C164.394 108.933 165.111 108.775 165.715 108.716C166.316 108.645 166.788 108.575 167.109 108.532C167.388 108.494 167.557 108.47 167.593 108.467C167.556 108.464 167.388 108.467 167.105 108.472C166.78 108.48 166.302 108.483 165.7 108.5C165.094 108.5 164.361 108.579 163.518 108.656C163.304 108.674 163.088 108.694 162.86 108.715C162.638 108.735 162.406 108.759 162.174 108.797C161.702 108.869 161.208 108.942 160.692 109.022C160.435 109.061 160.17 109.102 159.904 109.143C159.638 109.196 159.366 109.249 159.09 109.304C158.539 109.419 157.971 109.538 157.388 109.663C156.804 109.794 156.212 109.957 155.603 110.11C154.991 110.262 154.373 110.427 153.75 110.63C153.129 110.821 152.494 111.018 151.851 111.216C151.216 111.43 150.577 111.659 149.934 111.891C149.613 112.01 149.285 112.121 148.967 112.248C148.645 112.374 148.323 112.502 148.002 112.629C147.361 112.893 146.706 113.133 146.071 113.416C145.436 113.699 144.801 113.984 144.168 114.268C143.536 114.548 142.922 114.867 142.304 115.162C141.996 115.31 141.688 115.458 141.384 115.608C141.081 115.757 140.786 115.925 140.489 116.081C139.899 116.398 139.314 116.714 138.738 117.022C138.173 117.342 137.618 117.661 137.076 117.979C136.805 118.138 136.538 118.296 136.274 118.451C136.01 118.608 135.757 118.773 135.503 118.932C135.354 119.025 135.208 119.118 135.06 119.21C134.39 119.875 133.799 120.457 133.315 120.938Z" fill="#231916"/>
<path fill-rule="evenodd" clip-rule="evenodd" d="M138.106 93.1551C133.153 94.003 130.417 96.3152 129.898 100.092C130.899 109.437 128.712 117.503 123.336 124.29C123.808 125.075 124.656 125.045 125.882 124.2C143.72 112.671 151.525 100.705 149.295 88.3034C148.728 85.1505 147.534 80.2074 143.375 80.6542C138.24 81.2059 138.579 85.3964 138.592 89.1628C138.597 90.6407 138.552 92.0534 138.106 93.1551Z" fill="#AEB6FF"/>
<path fill-rule="evenodd" clip-rule="evenodd" d="M160.704 116.272C158.964 121.013 156.201 123.293 152.414 123.11C143.465 120.402 135.179 121.08 127.557 125.146C126.876 124.535 127.061 123.701 128.113 122.646C142.663 107.132 155.793 101.619 167.504 106.105C170.481 107.245 175.093 109.335 173.891 113.364C172.407 118.339 168.374 117.232 164.695 116.526C163.252 116.25 161.863 116.034 160.704 116.272Z" fill="#5767FF"/>
<path fill-rule="evenodd" clip-rule="evenodd" d="M128.932 120.203L129.315 119.353C129.316 119.342 129.319 119.334 129.318 119.322C129.66 118.795 130.012 118.241 130.381 117.673C130.538 117.421 130.708 117.174 130.864 116.913C131.022 116.65 131.179 116.385 131.343 116.12C131.667 115.588 131.996 115.044 132.333 114.491C132.975 113.367 133.656 112.217 134.297 111.017C134.618 110.417 134.961 109.825 135.27 109.212C135.581 108.6 135.894 107.983 136.205 107.369C136.527 106.756 136.809 106.128 137.111 105.51C137.258 105.199 137.406 104.893 137.553 104.583C137.699 104.273 137.829 103.957 137.969 103.647C138.243 103.03 138.516 102.411 138.785 101.803C139.036 101.186 139.282 100.577 139.523 99.9779C139.641 99.6758 139.774 99.3841 139.878 99.0861C139.99 98.7866 140.096 98.4894 140.204 98.1979C140.416 97.6139 140.64 97.047 140.831 96.4849C141.014 95.9195 141.192 95.3717 141.364 94.8415C141.453 94.5777 141.538 94.3154 141.622 94.0564C141.696 93.7996 141.766 93.5442 141.837 93.2964C141.98 92.7966 142.115 92.3192 142.246 91.868C142.317 91.6382 142.371 91.4164 142.42 91.1972C142.473 90.981 142.522 90.7697 142.573 90.5647C142.759 89.7447 142.96 89.0352 143.056 88.4321C143.164 87.8332 143.262 87.3642 143.325 87.0444C143.38 86.7664 143.414 86.5987 143.419 86.5617C143.419 86.5991 143.406 86.7681 143.384 87.052C143.355 87.3778 143.324 87.8573 143.27 88.4609C143.233 89.0691 143.109 89.7995 142.981 90.6413C142.95 90.8547 142.916 91.0707 142.882 91.298C142.848 91.5201 142.81 91.7515 142.758 91.9815C142.658 92.4514 142.555 92.9423 142.444 93.4549C142.389 93.7109 142.332 93.9739 142.275 94.2384C142.206 94.5025 142.136 94.7728 142.065 95.0465C141.917 95.5922 141.764 96.1554 141.604 96.7331C141.438 97.311 141.239 97.8955 141.051 98.4967C140.862 99.102 140.661 99.7115 140.421 100.324C140.193 100.937 139.958 101.561 139.723 102.194C139.471 102.82 139.204 103.446 138.934 104.077C138.796 104.393 138.666 104.714 138.52 105.027C138.375 105.342 138.228 105.657 138.083 105.971C137.782 106.599 137.503 107.241 137.183 107.861C136.863 108.481 136.541 109.101 136.22 109.719C135.903 110.337 135.549 110.933 135.219 111.535C135.052 111.836 134.887 112.135 134.719 112.431C134.553 112.727 134.368 113.012 134.194 113.3C133.844 113.873 133.494 114.441 133.153 115C132.801 115.548 132.45 116.086 132.1 116.609C131.926 116.872 131.753 117.13 131.583 117.385C131.411 117.641 131.231 117.885 131.058 118.13C130.957 118.273 130.855 118.415 130.755 118.557C130.054 119.19 129.44 119.748 128.932 120.203Z" fill="#8792FF"/>
<path fill-rule="evenodd" clip-rule="evenodd" d="M133.562 122.173L134.43 121.841C134.44 121.84 134.449 121.839 134.46 121.84C135.005 121.529 135.575 121.209 136.162 120.875C136.422 120.732 136.677 120.577 136.946 120.436C137.217 120.294 137.489 120.153 137.762 120.005C138.31 119.712 138.871 119.415 139.44 119.111C140.595 118.536 141.779 117.923 143.008 117.353C143.624 117.068 144.233 116.76 144.861 116.488C145.487 116.213 146.118 115.937 146.746 115.663C147.375 115.377 148.016 115.133 148.648 114.868C148.965 114.739 149.278 114.609 149.595 114.481C149.911 114.354 150.232 114.243 150.548 114.122C151.179 113.885 151.809 113.648 152.429 113.416C153.057 113.202 153.677 112.992 154.286 112.787C154.593 112.687 154.891 112.572 155.193 112.485C155.497 112.392 155.798 112.304 156.094 112.213C156.687 112.036 157.263 111.846 157.833 111.689C158.405 111.54 158.96 111.395 159.497 111.255C159.764 111.183 160.03 111.112 160.292 111.045C160.551 110.986 160.809 110.931 161.059 110.876C161.564 110.763 162.046 110.657 162.502 110.553C162.734 110.496 162.958 110.455 163.178 110.419C163.396 110.38 163.609 110.343 163.816 110.305C164.641 110.168 165.357 110.01 165.962 109.951C166.563 109.88 167.034 109.81 167.355 109.767C167.635 109.728 167.803 109.705 167.84 109.702C167.803 109.7 167.635 109.702 167.352 109.707C167.026 109.715 166.548 109.718 165.946 109.735C165.34 109.735 164.608 109.814 163.764 109.891C163.551 109.909 163.334 109.929 163.107 109.95C162.884 109.97 162.652 109.994 162.421 110.032C161.948 110.104 161.455 110.177 160.939 110.257C160.682 110.296 160.417 110.337 160.151 110.378C159.885 110.431 159.612 110.485 159.336 110.539C158.785 110.654 158.217 110.773 157.634 110.898C157.05 111.029 156.458 111.193 155.85 111.345C155.238 111.497 154.62 111.662 153.997 111.865C153.375 112.056 152.741 112.253 152.098 112.45C151.463 112.665 150.824 112.894 150.181 113.126C149.86 113.245 149.532 113.356 149.213 113.483C148.892 113.609 148.57 113.738 148.249 113.864C147.608 114.128 146.953 114.368 146.318 114.651C145.683 114.934 145.048 115.219 144.415 115.504C143.783 115.783 143.169 116.102 142.551 116.397C142.242 116.545 141.935 116.693 141.631 116.843C141.327 116.992 141.033 117.16 140.736 117.316C140.146 117.633 139.561 117.949 138.985 118.257C138.419 118.577 137.864 118.896 137.323 119.214C137.052 119.373 136.785 119.531 136.521 119.686C136.256 119.842 136.003 120.008 135.749 120.167C135.601 120.26 135.454 120.353 135.307 120.445C134.637 121.11 134.045 121.692 133.562 122.173Z" fill="#0013CC"/>
<path fill-rule="evenodd" clip-rule="evenodd" d="M99.138 24.1698H103.198H106.935H116.824C114.844 24.1013 113.721 23.1596 113.455 21.3447C113.462 21.2715 113.465 21.1972 113.465 21.1223C113.465 19.7319 112.344 18.605 110.962 18.605C110.291 18.605 109.683 18.8699 109.234 19.3013C108.788 17.4018 107.091 15.9881 105.066 15.9881C104.332 15.9881 103.64 16.1741 103.036 16.5019C102.163 15.2876 100.742 14.4975 99.1379 14.4975C97.5337 14.4975 96.1129 15.2876 95.2394 16.5019C94.6355 16.1741 93.944 15.9881 93.2095 15.9881C91.1847 15.9881 89.4882 17.4018 89.0424 19.3013C88.5931 18.8699 87.9843 18.605 87.3141 18.605C85.9315 18.605 84.8108 19.7319 84.8108 21.1223C84.8108 21.1972 84.8141 21.2715 84.8205 21.3447C84.5552 23.1596 83.4323 24.1013 81.4514 24.1698H91.3409H95.0781H99.138Z" fill="#AEB6FF"/>
<path fill-rule="evenodd" clip-rule="evenodd" d="M97.9604 23.3802H102.02H105.757H115.647C113.666 23.3116 112.543 22.37 112.278 20.5551C112.284 20.4818 112.287 20.4076 112.287 20.3327C112.287 18.9425 111.166 17.8154 109.784 17.8154C109.114 17.8154 108.505 18.0803 108.056 18.5117C107.61 16.6122 105.914 15.1985 103.889 15.1985C103.154 15.1985 102.463 15.3846 101.859 15.7124C100.985 14.4981 99.5647 13.708 97.9603 13.708C96.3561 13.708 94.9355 14.4981 94.0618 15.7124C93.4577 15.3846 92.7664 15.1985 92.0318 15.1985C90.007 15.1985 88.3104 16.6122 87.8646 18.5117C87.4153 18.0803 86.8066 17.8154 86.1364 17.8154C84.7541 17.8154 83.6333 18.9425 83.6333 20.3327C83.6333 20.4076 83.6363 20.4818 83.6427 20.5551C83.3776 22.37 82.2545 23.3116 80.2739 23.3802H90.1633H93.9005H97.9604Z" fill="#AEB6FF"/>
<path fill-rule="evenodd" clip-rule="evenodd" d="M151.909 66.0099H155.313H158.446H166.737C165.076 65.9524 164.135 65.1628 163.912 63.6415C163.918 63.5801 163.92 63.5179 163.92 63.455C163.92 62.2893 162.981 61.3444 161.822 61.3444C161.26 61.3444 160.75 61.5665 160.373 61.9282C159.999 60.3358 158.577 59.1504 156.879 59.1504C156.264 59.1504 155.684 59.3064 155.177 59.5812C154.445 58.563 153.254 57.9008 151.909 57.9008C150.564 57.9008 149.373 58.5631 148.64 59.5812C148.134 59.3063 147.554 59.1504 146.938 59.1504C145.241 59.1504 143.818 60.3356 143.445 61.9282C143.068 61.5666 142.558 61.3444 141.996 61.3444C140.837 61.3444 139.897 62.2893 139.897 63.455C139.897 63.5179 139.9 63.5801 139.905 63.6415C139.683 65.1629 138.741 65.9525 137.081 66.0099H145.372H148.505H151.909Z" fill="#AEB6FF"/>
<path fill-rule="evenodd" clip-rule="evenodd" d="M150.921 65.3479H154.325H157.459H165.75C164.089 65.2904 163.148 64.501 162.925 62.9794C162.93 62.9179 162.933 62.8556 162.933 62.793C162.933 61.6273 161.994 60.6824 160.835 60.6824C160.273 60.6824 159.763 60.9043 159.386 61.2662C159.012 59.6738 157.59 58.4883 155.892 58.4883C155.276 58.4883 154.697 58.6444 154.19 58.9192C153.458 57.901 152.267 57.2388 150.922 57.2388C149.577 57.2388 148.386 57.9011 147.653 58.9192C147.147 58.6444 146.567 58.4883 145.951 58.4883C144.253 58.4883 142.831 59.6736 142.458 61.2662C142.081 60.9043 141.57 60.6824 141.009 60.6824C139.85 60.6824 138.91 61.6273 138.91 62.793C138.91 62.8556 138.913 62.918 138.918 62.9794C138.696 64.501 137.754 65.2904 136.094 65.3479H144.385H147.518H150.921Z" fill="#AEB6FF"/>
<path fill-rule="evenodd" clip-rule="evenodd" d="M52.2754 32.6212C52.7809 33.5304 53.0775 34.7092 52.9971 35.8698C52.9167 37.0305 52.429 38.147 51.6963 38.6354C51.1356 39.0091 50.4942 39.0031 49.877 38.9895C34.5494 38.6582 48.85 26.4607 52.2754 32.6212Z" fill="#CDD1FF"/>
<path fill-rule="evenodd" clip-rule="evenodd" d="M63.0307 16.7255C63.8474 18.1942 64.3263 20.0982 64.1967 21.973C64.0667 23.848 63.2794 25.6512 62.0954 26.4407C61.19 27.0444 60.1541 27.0339 59.1569 27.0121C34.3988 26.4771 57.4982 6.77482 63.0307 16.7255Z" fill="#CDD1FF"/>
<path fill-rule="evenodd" clip-rule="evenodd" d="M35.2799 38.173C35.7854 39.0823 36.0819 40.2609 36.0015 41.4216C35.9211 42.5823 35.4337 43.6986 34.7005 44.1873C34.14 44.5612 33.4987 44.5545 32.8815 44.5414C17.5541 44.2101 31.8546 32.0126 35.2799 38.173Z" fill="#CDD1FF"/>
<path fill-rule="evenodd" clip-rule="evenodd" d="M33.1005 121.057H37.072H40.728H50.4022C48.4649 120.99 47.3663 120.068 47.1065 118.293C47.1129 118.221 47.1159 118.149 47.1159 118.076C47.1159 116.716 46.0199 115.613 44.6673 115.613C44.0118 115.613 43.4161 115.872 42.9765 116.294C42.5406 114.436 40.8807 113.053 38.9001 113.053C38.1814 113.053 37.5051 113.235 36.9143 113.556C36.0598 112.368 34.6699 111.595 33.1005 111.595C31.5311 111.595 30.1413 112.368 29.2869 113.556C28.6959 113.235 28.0197 113.053 27.3011 113.053C25.3204 113.053 23.6606 114.436 23.2246 116.294C22.7851 115.872 22.1896 115.613 21.5339 115.613C20.1815 115.613 19.0851 116.716 19.0851 118.076C19.0851 118.149 19.0884 118.221 19.0946 118.293C18.835 120.068 17.7364 120.99 15.7988 121.057H25.4731H29.1292H33.1005Z" fill="#AEB6FF"/>
<path fill-rule="evenodd" clip-rule="evenodd" d="M31.9483 120.284H35.9197H39.576H49.2503C47.3127 120.217 46.214 119.296 45.9545 117.52C45.9606 117.449 45.964 117.376 45.964 117.303C45.964 115.943 44.8676 114.84 43.5152 114.84C42.8596 114.84 42.264 115.1 41.8247 115.521C41.3885 113.663 39.7289 112.28 37.7482 112.28C37.0297 112.28 36.3533 112.462 35.7623 112.783C34.9079 111.595 33.518 110.822 31.9487 110.822C30.3795 110.822 28.9897 111.595 28.1351 112.783C27.5443 112.462 26.868 112.28 26.1492 112.28C24.1684 112.28 22.5089 113.663 22.0726 115.521C21.6331 115.1 21.0376 114.84 20.382 114.84C19.0297 114.84 17.9333 115.943 17.9333 117.303C17.9333 117.376 17.9366 117.449 17.9427 117.52C17.6832 119.296 16.5848 120.217 14.647 120.284H24.3215H27.9775H31.9483Z" fill="#AEB6FF"/>
<path fill-rule="evenodd" clip-rule="evenodd" d="M71.7536 48.2039H118.958C122.375 48.2039 125.17 51.0153 125.17 54.4511V135.777C125.17 139.212 122.375 142.024 118.958 142.024H71.7536C68.3374 142.024 65.5422 139.213 65.5422 135.777V54.451C65.5422 51.0149 68.3374 48.2039 71.7536 48.2039Z" fill="#E5E7FF"/>
<path fill-rule="evenodd" clip-rule="evenodd" d="M61.6323 50.0631V145.259C61.6323 150.068 64.8948 154.149 69.3041 155.371C69.3118 155.374 69.3404 155.372 69.3479 155.374C69.3629 155.378 69.385 155.378 69.4005 155.38C69.4747 155.388 69.5491 155.379 69.6279 155.389C70.1329 155.455 70.9469 155.401 71.4266 155.45C71.7764 155.486 71.8564 155.534 72.2153 155.536L118.654 155.745C124.388 155.771 129.08 151.026 129.08 145.259V50.0631C129.08 44.2957 124.388 39.5771 118.654 39.5771H72.059C66.3242 39.5771 61.6323 44.2959 61.6323 50.0631ZM71.7541 48.2039H118.959C122.375 48.2039 125.17 51.0153 125.17 54.4511V135.777C125.17 139.212 122.375 142.024 118.959 142.024H71.7541C68.3376 142.024 65.5424 139.213 65.5424 135.777V54.451C65.5424 51.015 68.3376 48.2039 71.7541 48.2039Z" fill="#231916"/>
<path fill-rule="evenodd" clip-rule="evenodd" d="M93.1505 144.65H97.5617C99.3433 144.65 100.801 146.116 100.801 147.908V149.861C100.801 151.653 99.343 153.119 97.5617 153.119H93.1505C91.3692 153.119 89.9114 151.653 89.9114 149.861V147.908C89.9114 146.116 91.3688 144.65 93.1505 144.65Z" fill="url(#paint0_linear_2669_25721)"/>
<path fill-rule="evenodd" clip-rule="evenodd" d="M93.1506 145.234C91.6893 145.234 90.4917 146.438 90.4917 147.908V149.861C90.4917 151.331 91.6892 152.535 93.1506 152.535H97.5618C99.0228 152.535 100.221 151.331 100.221 149.861V147.908C100.221 146.438 99.0229 145.234 97.5618 145.234H93.1506Z" fill="#231916"/>
<path fill-rule="evenodd" clip-rule="evenodd" d="M90.9203 42.3698C91.7719 42.3698 92.4624 43.064 92.4624 43.9203C92.4624 44.7769 91.7719 45.471 90.9203 45.471C90.0689 45.471 89.3787 44.7769 89.3787 43.9203C89.3787 43.064 90.0689 42.3698 90.9203 42.3698ZM99.7917 42.3698C100.643 42.3698 101.334 43.064 101.334 43.9203C101.334 44.7769 100.643 45.471 99.7917 45.471C98.9403 45.471 98.2501 44.7769 98.2501 43.9203C98.2501 43.064 98.9403 42.3698 99.7917 42.3698ZM95.356 42.3698C96.2076 42.3698 96.8979 43.064 96.8979 43.9203C96.8979 44.7769 96.2076 45.471 95.356 45.471C94.5047 45.471 93.8142 44.7769 93.8142 43.9203C93.8141 43.064 94.5046 42.3698 95.356 42.3698Z" fill="url(#paint1_linear_2669_25721)"/>
<path fill-rule="evenodd" clip-rule="evenodd" d="M90.9203 42.6839C90.2413 42.6839 89.6909 43.2375 89.6909 43.9203C89.6909 44.6034 90.2413 45.1569 90.9203 45.1569C91.5994 45.1569 92.1497 44.6033 92.1497 43.9203C92.1497 43.2375 91.5994 42.6839 90.9203 42.6839ZM99.7917 42.6839C99.1127 42.6839 98.5623 43.2375 98.5623 43.9203C98.5623 44.6034 99.1127 45.1569 99.7917 45.1569C100.471 45.1569 101.021 44.6033 101.021 43.9203C101.021 43.2375 100.471 42.6839 99.7917 42.6839ZM95.356 42.6839C94.6771 42.6839 94.1266 43.2375 94.1266 43.9203C94.1266 44.6034 94.6771 45.1569 95.356 45.1569C96.0351 45.1569 96.5855 44.6033 96.5855 43.9203C96.5855 43.2375 96.0351 42.6839 95.356 42.6839Z" fill="#231916"/>
<path fill-rule="evenodd" clip-rule="evenodd" d="M105.518 89.3725C117.674 110.547 119.667 107.074 95.3564 107.074C71.045 107.074 73.0388 110.547 85.1943 89.3725C97.3501 68.1979 93.3628 68.1982 105.518 89.3725Z" fill="#FF3300"/>
<path fill-rule="evenodd" clip-rule="evenodd" d="M95.3564 98.7087C96.5472 98.7087 97.5127 99.6798 97.5127 100.878C97.5127 102.076 96.5472 103.047 95.3564 103.047C94.1652 103.047 93.1997 102.076 93.1997 100.878C93.1996 99.6798 94.1651 98.7087 95.3564 98.7087Z" fill="white"/>
<path fill-rule="evenodd" clip-rule="evenodd" d="M95.3565 97.624C94.3409 97.624 93.5174 96.7958 93.5174 95.7744L92.9637 86.1113C92.9642 86.1157 92.9647 86.1202 92.9653 86.125C92.9536 86.0278 92.9475 85.9293 92.9475 85.829C92.9475 84.491 94.0259 83.4061 95.3565 83.4061C96.6869 83.4061 97.7654 84.491 97.7654 85.829C97.7654 85.9291 97.7592 86.0278 97.7475 86.125C97.748 86.1202 97.7489 86.1157 97.7494 86.1113L97.1956 95.7744C97.1956 96.7958 96.3722 97.624 95.3565 97.624Z" fill="white"/>
<defs>
<linearGradient id="paint0_linear_2669_25721" x1="95.3561" y1="153.119" x2="95.3561" y2="144.65" gradientUnits="userSpaceOnUse">
<stop stop-color="#9E9E9F"/>
<stop offset="0.44" stop-color="#473D3A"/>
<stop offset="1" stop-color="white"/>
</linearGradient>
<linearGradient id="paint1_linear_2669_25721" x1="95.3561" y1="45.4709" x2="95.3561" y2="42.3698" gradientUnits="userSpaceOnUse">
<stop stop-color="#9E9E9F"/>
<stop offset="0.44" stop-color="#473D3A"/>
<stop offset="1" stop-color="white"/>
</linearGradient>
</defs>
</svg>
