<svg width="176" height="140" viewBox="0 0 176 140" fill="none" xmlns="http://www.w3.org/2000/svg">
<path d="M154.296 69.9886C154.296 108.559 123.114 139.826 84.6495 139.826C46.1845 139.826 14.6813 108.558 15.0024 69.9887C15.3286 30.8084 47.6161 -2.52614 84.6495 0.150834C123.015 2.92394 154.296 31.4183 154.296 69.9886Z" fill="#E5E7FF"/>
<path d="M127.563 135.006L114.49 70.9326H65.6352L60.3765 60.8968H23.7354L44.9397 138.122L127.563 135.006Z" fill="#464F7A"/>
<path d="M100.281 14.5C102.691 14.4843 104.808 16.3022 105.115 18.6113C105.802 39.6324 109.733 70.9761 115.233 93.2266C113.1 95.0771 102.529 104.129 100.197 105.877L100.054 105.883L43.6904 107.677L43.7686 106.642L43.7715 106.598L43.7676 106.554C41.9118 88.4284 36.1539 40.7201 36.5166 19.0459V19.0303L36.5156 19.0146C36.4147 16.734 38.1665 14.9239 40.5576 14.9082H40.5586L100.281 14.5Z" fill="white" stroke="#EDEDED"/>
<path d="M115.794 93.4044C114.398 94.6676 102.953 104.818 100.845 106.409C100.636 106.566 100.521 106.652 100.521 106.652L100.552 106.42L101.977 93.5382C102.253 91.0454 104.851 89.5294 107.149 90.5194C110.097 91.7893 113.736 93.173 115.756 93.2521C115.756 93.2521 115.756 93.2521 115.758 93.2523C115.814 93.254 115.87 93.2532 115.923 93.2547C115.947 93.2537 115.903 93.3063 115.794 93.4044Z" fill="#AEB6FF"/>
<path d="M104.239 58.1998L62.2505 59.1474L62.263 59.7062L104.251 58.7586L104.239 58.1998Z" fill="#606C9C"/>
<path d="M98.132 63.3351L62.811 63.6113L62.8154 64.1702L98.1364 63.8939L98.132 63.3351Z" fill="#606C9C"/>
<path d="M59.7528 60.9077C60.1641 64.2247 57.8091 66.9705 54.4967 67.0432C53.6258 67.0623 52.7741 66.8956 51.9847 66.5758C51.5207 66.3894 51.0758 66.1519 50.6641 65.866C49.1114 64.8017 47.9853 63.1017 47.7459 61.1715C47.3884 58.2886 49.1174 55.8377 51.7556 55.1954C51.9106 55.1555 52.0668 55.124 52.2296 55.1006C52.4798 55.0587 52.741 55.0362 53.0071 55.0304C56.3194 54.9577 59.3411 57.588 59.7528 60.9077Z" fill="#AEB6FF"/>
<path d="M52.6628 63.8308C52.5273 63.8308 52.3958 63.7811 52.2935 63.6905C51.8725 63.317 50.8779 62.4308 50.7369 62.2693C50.5344 62.0369 50.5578 61.6838 50.7896 61.4807C51.0201 61.2783 51.3706 61.3011 51.5733 61.5306C51.6512 61.6139 52.1078 62.0286 52.6091 62.4769L55.7906 58.7636C55.9912 58.5295 56.3431 58.5027 56.5766 58.7039C56.8101 58.9049 56.8367 59.2578 56.6358 59.4919L53.0853 63.6363C52.9882 63.7498 52.8497 63.8194 52.7008 63.8296C52.6882 63.8304 52.6753 63.8308 52.6628 63.8308Z" fill="white"/>
<path d="M59.7525 60.9077C60.1638 64.2247 57.8088 66.9705 54.4964 67.0432C53.6255 67.0623 52.7737 66.8956 51.9844 66.5758C52.7813 66.2101 53.6713 66.005 54.5325 65.7727C55.6409 65.4731 56.7672 65.0916 57.5432 64.2852C58.4656 63.3238 58.761 61.8342 58.4315 60.4452C58.1021 59.0563 57.1891 57.7843 56.0289 56.8742C55.4126 56.3877 54.7273 56.0011 54.0136 55.7022C53.6641 55.5554 53.303 55.4284 52.939 55.324C52.7525 55.2691 52.3514 55.2498 52.2291 55.1007C52.4793 55.0588 52.7405 55.0363 53.0066 55.0305C56.3191 54.9577 59.3407 57.588 59.7525 60.9077Z" fill="#5767FF"/>
<path d="M105.179 73.0001L63.1904 73.9477L63.203 74.5065L105.191 73.5589L105.179 73.0001Z" fill="#606C9C"/>
<path d="M99.0734 78.1341L63.7524 78.4104L63.7568 78.9692L99.0778 78.693L99.0734 78.1341Z" fill="#606C9C"/>
<path d="M60.6922 75.7092C61.1036 79.0262 58.7486 81.7719 55.4361 81.8447C54.5653 81.8638 53.7135 81.6971 52.9242 81.3772C52.4603 81.1908 52.0153 80.9534 51.6035 80.6675C50.0509 79.6032 48.9247 77.9032 48.6854 75.9729C48.3279 73.0902 50.0568 70.6392 52.695 69.9969C52.8501 69.957 53.0062 69.9255 53.169 69.9021C53.4193 69.8602 53.6804 69.8377 53.9465 69.8319C57.2589 69.7591 60.2805 72.3894 60.6922 75.7092Z" fill="#AEB6FF"/>
<path d="M53.6022 78.632C53.4667 78.632 53.3352 78.5823 53.2329 78.4918C52.8119 78.1182 51.8173 77.2321 51.6765 77.0706C51.4738 76.8384 51.4973 76.4853 51.7288 76.2821C51.9601 76.0795 52.3095 76.1024 52.5128 76.3316C52.5907 76.4148 53.0473 76.8296 53.5485 77.2779L56.7301 73.5645C56.9309 73.3306 57.2823 73.3038 57.5161 73.5048C57.7496 73.706 57.7762 74.0588 57.5753 74.2929L54.0248 78.4373C53.9277 78.5508 53.7892 78.6204 53.6402 78.6307C53.6275 78.6316 53.6147 78.632 53.6022 78.632Z" fill="white"/>
<path d="M60.6919 75.709C61.1032 79.0259 58.7483 81.7717 55.4358 81.8444C54.565 81.8635 53.7132 81.6968 52.9238 81.377C53.7208 81.0112 54.6107 80.8062 55.4719 80.5739C56.5803 80.2742 57.7067 79.8927 58.4826 79.0863C59.4051 78.125 59.7005 76.6353 59.371 75.2464C59.0415 73.8574 58.1285 72.5854 56.9684 71.6754C56.3521 71.1888 55.6669 70.8022 54.9531 70.5032C54.6036 70.3564 54.2425 70.2294 53.8786 70.125C53.6921 70.0701 53.291 70.0508 53.1686 69.9018C53.4189 69.8598 53.68 69.8374 53.9461 69.8315C57.2586 69.7589 60.2802 72.3891 60.6919 75.709Z" fill="#5767FF"/>
<path d="M106.118 87.8014L64.1299 88.7491L64.1424 89.3078L106.131 88.3602L106.118 87.8014Z" fill="#606C9C"/>
<path d="M100.012 92.9358L64.6914 93.2121L64.6958 93.7709L100.017 93.4947L100.012 92.9358Z" fill="#606C9C"/>
<path d="M61.6317 90.5102C62.043 93.8271 59.688 96.5729 56.3755 96.6456C55.5047 96.6648 54.6529 96.498 53.8636 96.1782C53.3996 95.9918 52.9546 95.7543 52.543 95.4685C50.9903 94.4041 49.8642 92.7042 49.6248 90.7739C49.2673 87.8911 50.9963 85.4402 53.6345 84.7979C53.7895 84.758 53.9457 84.7264 54.1085 84.7031C54.3587 84.6611 54.62 84.6387 54.886 84.6328C58.1985 84.56 61.2201 87.1903 61.6317 90.5102Z" fill="#AEB6FF"/>
<path d="M54.5419 93.4332C54.4064 93.4332 54.2749 93.3836 54.1726 93.293C53.7517 92.9194 52.757 92.0333 52.6163 91.8719C52.4132 91.6398 52.4367 91.2867 52.6679 91.0833C52.8987 90.8807 53.2486 90.9029 53.452 91.1324C53.5298 91.2157 53.9867 91.6306 54.4883 92.0791L57.6692 88.3656C57.8698 88.1317 58.2222 88.105 58.4551 88.3059C58.6886 88.5071 58.7156 88.8599 58.515 89.094L54.9647 93.2385C54.8673 93.352 54.7288 93.4216 54.58 93.4319C54.5672 93.4328 54.5545 93.4332 54.5419 93.4332Z" fill="white"/>
<path d="M61.6314 90.5102C62.0427 93.8271 59.6877 96.5729 56.3752 96.6456C55.5043 96.6648 54.6526 96.498 53.8633 96.1782C54.6602 95.8124 55.5502 95.6075 56.4114 95.3752C57.5198 95.0755 58.6461 94.694 59.4221 93.8876C60.3445 92.9263 60.6399 91.4366 60.3105 90.0477C59.981 88.6587 59.0679 87.3867 57.9078 86.4767C57.2915 85.9901 56.6062 85.6036 55.8925 85.3046C55.543 85.1578 55.1819 85.0308 54.8179 84.9264C54.6314 84.8716 54.2303 84.8522 54.108 84.7032C54.3582 84.6612 54.6195 84.6388 54.8855 84.6329C58.1981 84.56 61.2197 87.1903 61.6314 90.5102Z" fill="#5767FF"/>
<path d="M54.5577 51.1065C60.8739 51.1065 65.9942 45.9721 65.9942 39.6386C65.9942 33.305 60.8739 28.1707 54.5577 28.1707C48.2414 28.1707 43.1211 33.305 43.1211 39.6386C43.1211 45.9721 48.2414 51.1065 54.5577 51.1065Z" fill="#5767FF"/>
<path d="M57.5421 39.3564L61.7915 41.309L60.5442 44.0403L56.2947 42.0877L56.7338 46.7553L53.7471 47.0377L53.3083 42.3726L49.5955 45.016L47.8583 42.5645L51.5709 39.9186L47.3242 37.9681L48.5712 35.2345L52.8205 37.187L52.3817 32.522L55.3684 32.2395L55.807 36.9021L59.7129 34.1209L61.4502 36.5726L57.5421 39.3564Z" fill="white"/>
<path d="M71.611 33.9373C71.6096 33.9373 71.6086 33.9373 71.6078 33.9373C71.377 33.9334 71.193 33.7425 71.1968 33.511C71.2006 33.282 71.387 33.099 71.6146 33.099C71.616 33.099 71.617 33.099 71.6181 33.099C72.0584 33.0949 89.3378 32.3215 98.4206 31.9129C98.659 31.9029 98.8465 32.0817 98.8568 32.3128C98.8671 32.5441 98.6886 32.74 98.4582 32.7504C95.7522 32.8721 72.0692 33.9373 71.611 33.9373Z" fill="#606C9C"/>
<path d="M71.9321 39.0635C71.931 39.0635 71.9299 39.0635 71.9288 39.0635C71.698 39.0594 71.5143 38.8685 71.5181 38.6371C71.5222 38.4067 71.7097 38.2175 71.9397 38.2252C72.3829 38.2211 89.6599 37.4479 98.7419 37.0393C98.977 37.0303 99.1677 37.208 99.1781 37.4391C99.1884 37.6704 99.0099 37.8663 98.7794 37.8767C96.0739 37.9985 72.3934 39.0635 71.9321 39.0635Z" fill="#606C9C"/>
<path d="M72.2546 44.19C72.2527 44.19 72.2514 44.19 72.2501 44.19C72.0193 44.1859 71.8356 43.995 71.8394 43.7636C71.8435 43.5331 72.0291 43.3549 72.262 43.3518C72.6463 43.3503 85.0809 42.7943 91.6063 42.5004C91.8409 42.4918 92.0323 42.669 92.0426 42.9003C92.0532 43.1316 91.8744 43.3275 91.6439 43.3378C89.7014 43.4253 72.7135 44.19 72.2546 44.19Z" fill="#606C9C"/>
<path d="M67.6191 124.185C67.6191 124.185 80.2391 96.9584 82.7248 83.3453L134.161 88.3304L122.114 130.129L67.6191 124.185Z" fill="#AEB6FF"/>
<path d="M44.9404 138.123L62.5382 137.458L135.141 134.719L156.292 98.1925L160.062 91.6846H70.6138L44.9404 138.123Z" fill="#5767FF"/>
<path d="M44.9404 138.123L56.0202 137.704C58.5672 128.569 67.4988 107.084 70.8735 103.035C81.1005 90.7685 142.39 96.5474 157.351 96.9079L160.063 91.6845H70.6139L44.9404 138.123Z" fill="#0013CC"/>
<path d="M143.451 41.5721C141.748 41.3325 140.12 42.3469 139.638 44.0024L135.998 56.5102C134.654 61.132 135.285 66.1179 137.782 70.2301C139.53 73.1092 142.175 76.6079 146.061 80.4257C146.888 81.2376 148.068 81.5778 149.198 81.3288C152.47 80.6076 159.317 79.0292 161.886 77.9138C166.294 76.0028 169.679 72.2973 171.243 67.7457L175.476 55.4275C176.036 53.797 175.291 52.0258 173.763 51.2352C168.441 48.4827 165.177 43.0782 163.46 39.4758C162.608 37.6865 160.43 36.9916 158.703 37.9576C155.224 39.9032 149.386 42.407 143.451 41.5721Z" fill="#5767FF"/>
<path d="M140.35 68.7487C142.397 72.0476 145.109 75.3614 148.432 78.6206C148.495 78.6113 148.56 78.5991 148.623 78.5898C153.157 77.8338 157.231 76.6977 160.761 75.2009C164.307 73.6993 167.061 70.7519 168.325 67.1124L172.629 54.7048C168.573 52.3747 164.122 48.2876 160.421 41.14C160.394 41.1534 160.37 41.1683 160.343 41.1795C153.202 44.8542 147.218 45.6317 142.574 45.2076L138.875 57.8085C137.794 61.5041 138.33 65.4906 140.35 68.7487Z" fill="white"/>
<path d="M156.907 60.9053L160.234 64.7564L157.771 66.8923L154.447 63.0412L152.784 67.8579L151.159 67.2923L149.703 66.7842L151.365 61.9744L146.504 62.9102L145.89 59.7005L150.751 58.7601L147.428 54.9136L149.888 52.7731L153.215 56.6242L154.878 51.8121L156.148 52.2535L157.957 52.8834L156.297 57.6933L161.41 56.707L162.025 59.9167L156.907 60.9053Z" fill="#5767FF"/>
<path d="M8.77048 23.7883C9.93624 24.4663 10.8713 25.5436 11.3503 26.8905C11.4037 27.041 11.4518 27.1935 11.492 27.3504L14.5697 38.9072C15.4002 42.0336 13.5459 45.2475 10.4281 46.0804C8.64327 46.5592 6.83297 46.1547 5.45249 45.1367C4.41988 44.3729 3.62972 43.2669 3.27426 41.93L1.5719 35.5303C1.56966 35.5276 1.57025 35.5225 1.56791 35.5198L0.199018 30.3734C-0.314902 28.44 0.195121 26.4752 1.39884 25.0591C2.14189 24.1846 3.14821 23.5201 4.33811 23.1999C5.89593 22.7821 7.47731 23.0388 8.77048 23.7883Z" fill="#5767FF"/>
<path d="M8.77048 23.7883C9.93624 24.4663 10.8713 25.5436 11.3503 26.8905L12.8373 32.4791C13.0115 33.1943 12.7397 33.8772 12.1779 34.4899C9.81428 37.0641 2.35222 38.3997 1.5719 35.5303C1.56966 35.5276 1.57025 35.5225 1.56791 35.5198L0.199018 30.3734C-0.314902 28.44 0.195121 26.4752 1.39884 25.0591C2.14189 24.1846 3.14821 23.5201 4.33811 23.1999C5.89593 22.7821 7.47731 23.0388 8.77048 23.7883Z" fill="#AEB6FF"/>
<path d="M11.35 26.8905C11.4034 27.041 11.4515 27.1935 11.4917 27.3504L14.5694 38.9072C15.3999 42.0336 13.5455 45.2475 10.4277 46.0804C8.64293 46.5592 6.83263 46.1547 5.45215 45.1367C6.54871 45.1407 7.64838 45.2392 8.7423 45.1411C10.1798 45.0115 11.6932 44.4543 12.4491 43.2246C13.0321 42.2754 13.0694 41.0978 13.0187 39.9852C12.9337 38.1308 12.6494 36.2867 12.1775 34.4899C12.7394 33.8772 13.0112 33.1943 12.8368 32.479L11.35 26.8905Z" fill="#0013CC"/>
<path d="M8.77057 23.7882C9.93633 24.4663 10.8714 25.5436 11.3504 26.8905L12.8373 32.479C13.0116 33.1943 12.7398 33.8772 12.178 34.4899C11.7972 33.0511 11.2939 31.6432 10.6763 30.2873C9.59858 27.9251 7.93807 25.5524 5.43262 24.8916C4.1192 24.5449 3.21244 25.0795 1.96949 25.1676C1.76237 25.1823 1.56858 25.1398 1.39893 25.059C2.14197 24.1845 3.1483 23.5199 4.3382 23.1998C5.89602 22.7821 7.47739 23.0388 8.77057 23.7882Z" fill="#8792FF"/>
<g opacity="0.3">
<path d="M2.81137 28.2249C2.86695 27.9109 2.93898 27.5927 3.10484 27.3207C3.27069 27.0486 3.54673 26.8265 3.86374 26.8012C4.43558 26.7554 4.87834 27.3647 4.90715 27.9393C4.93596 28.5138 4.68485 29.0591 4.50303 29.6047C4.02356 31.0431 4.01549 32.6351 4.48035 34.0782C4.58216 34.3943 4.70694 34.7329 4.60542 35.0491C4.53057 35.2821 4.19205 35.5342 3.95348 35.3833C3.81079 35.2931 3.69721 34.7829 3.62713 34.6272C3.33017 33.9671 3.09569 33.2812 2.93236 32.5756C2.60328 31.153 2.55665 29.6635 2.81137 28.2249Z" fill="white"/>
</g>
<g opacity="0.3">
<path d="M5.41455 33.4447C5.49271 33.5949 5.62751 33.759 5.79317 33.7258C5.92662 33.699 5.99972 33.5568 6.04673 33.4288C6.28072 32.7919 6.34321 32.0925 6.22573 31.4241C6.19789 31.2657 6.15847 31.1051 6.06892 30.9716C5.58829 30.2551 5.18007 31.2185 5.11836 31.6248C5.02463 32.2422 5.12596 32.8905 5.41455 33.4447Z" fill="white"/>
</g>
<path d="M29.8379 44.7117C29.8774 46.1307 29.4335 47.5635 28.4977 48.7364C28.393 48.8674 28.2836 48.9947 28.166 49.1173L19.5659 58.2564C17.2381 60.7269 13.3501 60.8398 10.8863 58.5057C9.47405 57.1708 8.83506 55.3253 8.98009 53.5261C9.09066 52.179 9.64001 50.8603 10.6352 49.8035L15.3987 44.7444C15.4 44.7409 15.4048 44.7386 15.4059 44.735L19.2366 40.6668C20.676 39.1388 22.7087 38.5109 24.6352 38.8076C25.8248 38.9906 26.9727 39.5255 27.915 40.415C29.1475 41.5802 29.7918 43.1391 29.8379 44.7117Z" fill="#5767FF"/>
<path d="M29.838 44.7117C29.8775 46.1307 29.4336 47.5635 28.4978 48.7364L24.3381 53.1545C23.7969 53.7056 23.0383 53.8391 22.182 53.674C18.5827 52.9772 13.2723 47.028 15.3986 44.7444C15.3999 44.7409 15.4047 44.7386 15.4058 44.735L19.2365 40.6668C20.6759 39.1388 22.7086 38.5109 24.6351 38.8076C25.8247 38.9906 26.9726 39.5255 27.9149 40.415C29.1476 41.5802 29.7919 43.1391 29.838 44.7117Z" fill="#AEB6FF"/>
<g opacity="0.3">
<path d="M21.4278 40.8653C21.7136 40.7254 22.0124 40.5962 22.3293 40.5703C22.6462 40.5443 22.9879 40.6371 23.1951 40.8791C23.5689 41.3155 23.3389 42.0332 22.8929 42.3951C22.4469 42.757 21.8596 42.8749 21.3128 43.049C19.8713 43.5081 18.5837 44.4396 17.6948 45.6666C17.5 45.9354 17.3008 46.2359 16.9862 46.34C16.7543 46.4167 16.3518 46.2909 16.3328 46.0088C16.3214 45.8399 16.6656 45.4473 16.7498 45.2988C17.1067 44.6692 17.5211 44.0752 17.9935 43.5271C18.9458 42.4221 20.1186 41.5067 21.4278 40.8653Z" fill="white"/>
</g>
<g opacity="0.3">
<path d="M18.7556 46.0499C18.6807 46.2017 18.6278 46.4076 18.7522 46.5222C18.8524 46.6146 19.0101 46.59 19.1409 46.5527C19.7919 46.367 20.3923 46.0055 20.8616 45.5165C20.9729 45.4005 21.079 45.274 21.1338 45.1228C21.4278 44.3113 20.4111 44.5483 20.0473 44.7377C19.4948 45.0255 19.0322 45.4895 18.7556 46.0499Z" fill="white"/>
</g>
<path d="M28.4977 48.7364C28.393 48.8674 28.2836 48.9947 28.166 49.1173L19.5659 58.2564C17.2381 60.7269 13.3501 60.8398 10.8863 58.5058C9.47405 57.1708 8.83506 55.3253 8.98009 53.5261C9.582 54.5109 10.1014 55.5507 10.7928 56.4768C11.702 57.6933 13.0343 58.7418 14.5476 58.7403C15.7155 58.7385 16.7854 58.1217 17.749 57.462C19.3547 56.3619 20.8412 55.089 22.182 53.674C23.0383 53.8391 23.7969 53.7056 24.3381 53.1545L28.4977 48.7364Z" fill="#0013CC"/>
<path d="M29.8377 44.7117C29.8771 46.1307 29.4333 47.5635 28.4974 48.7364L24.3378 53.1545C23.7966 53.7056 23.038 53.8391 22.1816 53.674C23.2537 52.5383 24.2305 51.3099 25.0977 50.0078C26.6079 47.7378 27.8057 44.9397 27.0111 42.3297C26.5949 40.9614 25.6178 40.444 24.853 39.3789C24.7255 39.2013 24.6564 39.0043 24.6347 38.8076C25.8243 38.9906 26.9723 39.5255 27.9146 40.415C29.1472 41.5802 29.7915 43.1391 29.8377 44.7117Z" fill="#8792FF"/>
<path d="M135.891 39.3358C135.271 40.6125 134.215 41.678 132.843 42.2858C132.69 42.3536 132.534 42.416 132.373 42.4704L120.523 46.6016C117.317 47.7171 113.817 46.0206 112.71 42.8123C112.075 40.9759 112.361 39.0439 113.321 37.5153C114.041 36.3718 115.138 35.456 116.509 34.9788L123.071 32.6931C123.074 32.6906 123.079 32.6907 123.082 32.688L128.358 30.8501C130.341 30.1601 132.434 30.5425 134.005 31.6958C134.976 32.4077 135.747 33.4125 136.171 34.6367C136.726 36.2396 136.577 37.9198 135.891 39.3358Z" fill="#5767FF"/>
<path d="M135.891 39.3359C135.271 40.6125 134.215 41.6781 132.843 42.2858L127.113 44.2821C126.378 44.5207 125.644 44.2886 124.961 43.7465C122.091 41.4655 120.13 33.7357 123.071 32.693C123.074 32.6905 123.079 32.6906 123.082 32.688L128.358 30.8501C130.341 30.16 132.434 30.5424 134.005 31.6957C134.976 32.4077 135.747 33.4124 136.171 34.6367C136.726 36.2396 136.577 37.9199 135.891 39.3359Z" fill="#AEB6FF"/>
<g opacity="0.3">
<path d="M130.21 32.0387C130.528 32.0466 130.853 32.0701 131.146 32.1935C131.439 32.3169 131.699 32.5571 131.771 32.8674C131.901 33.4272 131.365 33.9574 130.803 34.0723C130.24 34.1872 129.664 34.0204 129.099 33.9221C127.609 33.6633 126.036 33.8944 124.681 34.5718C124.384 34.7202 124.069 34.8946 123.741 34.8416C123.5 34.8025 123.201 34.5049 123.315 34.2459C123.383 34.0909 123.87 33.9017 124.013 33.809C124.62 33.4155 125.262 33.0802 125.934 32.8124C127.29 32.2724 128.753 32.0025 130.21 32.0387Z" fill="white"/>
</g>
<g opacity="0.3">
<path d="M125.445 35.4019C125.308 35.5019 125.166 35.66 125.223 35.8192C125.27 35.9474 125.421 35.9984 125.554 36.0258C126.217 36.162 126.917 36.1188 127.559 35.9019C127.711 35.8505 127.864 35.7873 127.982 35.6786C128.618 35.0947 127.607 34.8351 127.197 34.835C126.574 34.835 125.949 35.0327 125.445 35.4019Z" fill="white"/>
</g>
<path d="M132.843 42.2858C132.69 42.3536 132.534 42.416 132.373 42.4704L120.523 46.6016C117.317 47.7171 113.817 46.0206 112.71 42.8123C112.075 40.9759 112.361 39.0439 113.321 37.5153C113.4 38.6668 113.38 39.829 113.565 40.9697C113.809 42.4687 114.506 44.0141 115.849 44.712C116.886 45.2501 118.12 45.1975 119.279 45.0577C121.211 44.8239 123.118 44.3819 124.961 43.7465C125.644 44.2886 126.378 44.5207 127.113 44.2821L132.843 42.2858Z" fill="#0013CC"/>
<path d="M135.891 39.3358C135.271 40.6124 134.215 41.678 132.843 42.2857L127.113 44.282C126.378 44.5207 125.644 44.2885 124.961 43.7464C126.436 43.2346 127.87 42.5965 129.241 41.8425C131.629 40.5271 133.984 38.5991 134.485 35.9173C134.748 34.5114 134.121 33.6011 133.935 32.3031C133.904 32.0868 133.933 31.8801 134.005 31.6957C134.976 32.4076 135.746 33.4124 136.171 34.6366C136.726 36.2396 136.577 37.9198 135.891 39.3358Z" fill="#8792FF"/>
</svg>
