<svg width="24" height="24" viewBox="0 0 24 24" fill="none" xmlns="http://www.w3.org/2000/svg">
<g clip-path="url(#clip0_2849_1729)">
<path d="M21 9H15V10.5H21V21H15V22.5H21C21.8269 22.5 22.5 21.8273 22.5 21V10.5C22.5 9.67313 21.8269 9 21 9Z" fill="white"/>
<path d="M14.2501 12L13.1895 13.0606L15.1289 15H12C10.3458 15 9 13.6542 9 12V10.5H7.5V12C7.5 14.4814 9.51877 16.5 12 16.5H15.1289L13.1895 18.4394L14.2501 19.5L18.0001 15.75L14.2501 12Z" fill="white"/>
<path d="M9 21H4.5V6H16.5V3C16.5 2.17275 15.8269 1.5 15 1.5H4.5C3.67275 1.5 3 2.17275 3 3V21C3 21.8269 3.67275 22.5 4.5 22.5H9V21ZM4.5 3H15V4.5H4.5V3Z" fill="white"/>
</g>
<defs>
<clipPath id="clip0_2849_1729">
<rect width="24" height="24" fill="white"/>
</clipPath>
</defs>
</svg>
