<svg width="24" height="24" viewBox="0 0 24 24" fill="none" xmlns="http://www.w3.org/2000/svg">
<path d="M9.19563 3.00037H4.3954C3.62973 3.00037 3.00684 3.62326 3.00684 4.38893V13.2027C3.00684 13.9684 3.62973 14.5913 4.3954 14.5913H9.19563C9.96129 14.5913 10.5842 13.9684 10.5842 13.2027V4.38893C10.5842 3.62326 9.96129 3.00037 9.19563 3.00037ZM5.89249 4.05466H7.69853V4.34917H5.89249V4.05466ZM9.52989 13.2028C9.52989 13.3871 9.37995 13.537 9.19563 13.537H4.3954C4.21108 13.537 4.06113 13.3871 4.06113 13.2028V4.38893C4.06113 4.20461 4.21108 4.05466 4.3954 4.05466H4.83819V4.51605C4.83819 5.00539 5.23627 5.40347 5.72557 5.40347H7.86542C8.35472 5.40347 8.7528 5.00539 8.7528 4.51605V4.05466H9.19559C9.37991 4.05466 9.52985 4.20461 9.52985 4.38893L9.52989 13.2028Z" fill="black"/>
<path d="M7.64911 11.7382H5.94217C5.65104 11.7382 5.41504 11.9742 5.41504 12.2653C5.41504 12.5564 5.65108 12.7924 5.94217 12.7924H7.64911C7.94024 12.7924 8.17624 12.5564 8.17624 12.2653C8.17624 11.9742 7.94024 11.7382 7.64911 11.7382Z" fill="black"/>
<path d="M19.6043 9.40942H14.8041C14.0384 9.40942 13.4155 10.0323 13.4155 10.798V19.6118C13.4155 20.3774 14.0384 21.0003 14.8041 21.0003H19.6043C20.37 21.0003 20.9929 20.3774 20.9929 19.6118V10.798C20.9928 10.0323 20.3699 9.40942 19.6043 9.40942ZM16.3011 10.4637H18.1072V10.7582H16.3011V10.4637ZM19.9386 19.6118H19.9385C19.9385 19.7961 19.7886 19.9461 19.6043 19.9461H14.8041C14.6198 19.9461 14.4698 19.7961 14.4698 19.6118V10.798C14.4698 10.6137 14.6198 10.4637 14.8041 10.4637H15.2469V10.9251C15.2469 11.4145 15.645 11.8125 16.1343 11.8125H18.2741C18.7635 11.8125 19.1616 11.4145 19.1616 10.9251V10.4637H19.6044C19.7887 10.4637 19.9386 10.6137 19.9386 10.798V19.6118Z" fill="black"/>
<path d="M18.0578 18.1472H16.3509C16.0597 18.1472 15.8237 18.3833 15.8237 18.6743C15.8237 18.9655 16.0598 19.2015 16.3509 19.2015H18.0578C18.3489 19.2015 18.5849 18.9654 18.5849 18.6743C18.585 18.3833 18.3489 18.1472 18.0578 18.1472Z" fill="black"/>
<path d="M19.3721 6.2372C19.372 6.23062 19.3716 6.22405 19.3713 6.21748C19.371 6.21076 19.3706 6.20412 19.37 6.19744C19.3697 6.19322 19.3694 6.18896 19.3689 6.18478C19.3683 6.17866 19.3672 6.17258 19.3663 6.1665C19.3654 6.15992 19.3644 6.15342 19.3632 6.14688C19.3623 6.14235 19.3616 6.13778 19.3607 6.13328C19.3595 6.12765 19.3579 6.1221 19.3565 6.11647C19.3549 6.10997 19.3532 6.1035 19.3514 6.09703C19.3501 6.09246 19.349 6.08785 19.3475 6.08332C19.3459 6.07819 19.3439 6.07316 19.3421 6.06803C19.3397 6.06131 19.3372 6.05467 19.3346 6.04806C19.3329 6.04373 19.3314 6.03934 19.3295 6.03509C19.3275 6.03044 19.3252 6.02594 19.3231 6.02137C19.3199 6.01445 19.3165 6.00759 19.313 6.00081C19.3109 5.99677 19.309 5.99269 19.3068 5.98871C19.3045 5.98453 19.3019 5.98049 19.2995 5.97637C19.2955 5.96955 19.2914 5.9628 19.287 5.95612C19.2844 5.95219 19.282 5.94825 19.2793 5.94438C19.2766 5.94052 19.2737 5.93672 19.2709 5.93292C19.2664 5.92673 19.2618 5.92062 19.2571 5.91461C19.2539 5.9106 19.2507 5.90659 19.2473 5.90269C19.246 5.90114 19.2449 5.89949 19.2436 5.89794C19.2414 5.89544 19.239 5.8933 19.2368 5.89084C19.2324 5.88592 19.228 5.88103 19.2233 5.87628C19.2196 5.87242 19.2158 5.86862 19.2119 5.86486C19.2071 5.86022 19.2022 5.85579 19.1974 5.85136C19.1949 5.84914 19.1928 5.84675 19.1903 5.84457L17.4849 4.36749C17.2649 4.17684 16.932 4.20074 16.7414 4.42082C16.5507 4.6409 16.5746 4.97376 16.7947 5.16437L17.4314 5.71587H12.6575C12.3664 5.71587 12.1304 5.95191 12.1304 6.243C12.1304 6.53413 12.3664 6.77013 12.6575 6.77013H17.4315L16.7948 7.32163C16.5747 7.51224 16.5508 7.8451 16.7414 8.06518C16.8457 8.18555 16.9925 8.24722 17.1401 8.24722C17.2624 8.24722 17.3853 8.20489 17.485 8.11851L19.1904 6.64142C19.1924 6.63967 19.1941 6.6377 19.1961 6.63594C19.2006 6.63186 19.2051 6.62768 19.2095 6.62342C19.2142 6.61892 19.2189 6.61442 19.2234 6.60975C19.2282 6.60479 19.2328 6.59973 19.2374 6.59463C19.2394 6.59235 19.2417 6.59041 19.2437 6.58809C19.245 6.58655 19.2461 6.58489 19.2474 6.58335C19.2507 6.57944 19.2539 6.57544 19.2571 6.57143C19.2619 6.56542 19.2665 6.5593 19.271 6.55311C19.2738 6.54928 19.2767 6.54552 19.2794 6.54165C19.2821 6.53778 19.2845 6.53385 19.2871 6.52991C19.2914 6.52323 19.2956 6.51648 19.2995 6.50966C19.302 6.50555 19.3046 6.5015 19.3069 6.49732C19.3091 6.49335 19.311 6.48923 19.3131 6.48519C19.3166 6.4784 19.3199 6.47155 19.3232 6.46466C19.3253 6.46009 19.3277 6.45555 19.3296 6.45091C19.3314 6.44666 19.333 6.44223 19.3347 6.4379C19.3374 6.4313 19.3398 6.42462 19.3422 6.41794C19.344 6.41284 19.346 6.40781 19.3476 6.40268C19.3491 6.39818 19.3502 6.39354 19.3515 6.38897C19.3533 6.3825 19.355 6.37603 19.3566 6.36953C19.358 6.36394 19.3596 6.35838 19.3608 6.35272C19.3618 6.34822 19.3624 6.34365 19.3633 6.33912C19.3645 6.33261 19.3655 6.32607 19.3664 6.3195C19.3673 6.31342 19.3684 6.30733 19.369 6.30122C19.3695 6.29703 19.3698 6.29278 19.3701 6.28856C19.3707 6.28188 19.371 6.2752 19.3714 6.26852C19.3717 6.26195 19.3721 6.25537 19.3722 6.2488C19.3722 6.2468 19.3725 6.24483 19.3725 6.24282C19.3724 6.24117 19.3721 6.2392 19.3721 6.2372Z" fill="black"/>
<path d="M11.2545 17.278H6.48052L7.11724 16.7265C7.33731 16.5359 7.36115 16.203 7.17057 15.983C6.97992 15.7629 6.64706 15.739 6.42698 15.9296L4.72162 17.4068C4.71913 17.4089 4.71702 17.4113 4.71456 17.4135C4.70964 17.4179 4.70475 17.4224 4.69997 17.427C4.6961 17.4308 4.6923 17.4346 4.68858 17.4384C4.68394 17.4432 4.67951 17.4481 4.67508 17.453C4.67286 17.4554 4.67044 17.4576 4.66829 17.4601C4.66696 17.4616 4.6659 17.4633 4.6646 17.4648C4.6613 17.4687 4.6581 17.4727 4.65486 17.4768C4.65005 17.4828 4.64548 17.4889 4.64098 17.4951C4.63816 17.4989 4.63528 17.5027 4.63261 17.5065C4.62994 17.5104 4.62748 17.5143 4.62491 17.5183C4.62059 17.5249 4.61644 17.5317 4.61246 17.5385C4.61004 17.5426 4.60744 17.5467 4.60512 17.5508C4.60294 17.5548 4.60097 17.5589 4.59889 17.563C4.59538 17.5697 4.59207 17.5766 4.58887 17.5835C4.58673 17.5881 4.58437 17.5926 4.58241 17.5972C4.58058 17.6015 4.57903 17.6059 4.57731 17.6102C4.57467 17.6168 4.57221 17.6235 4.56986 17.6302C4.56806 17.6353 4.56602 17.6403 4.56441 17.6455C4.56296 17.65 4.56187 17.6546 4.56054 17.6592C4.55868 17.6656 4.55702 17.6721 4.55541 17.6786C4.55404 17.6842 4.55242 17.6898 4.55122 17.6954C4.55027 17.6999 4.54961 17.7045 4.54876 17.709C4.54757 17.7155 4.54655 17.722 4.5456 17.7286C4.54472 17.7347 4.54366 17.7408 4.543 17.7469C4.54254 17.7511 4.54226 17.7553 4.54191 17.7595C4.54131 17.7662 4.54099 17.7729 4.54064 17.7796C4.54032 17.7862 4.53994 17.7927 4.53987 17.7993C4.53983 17.8013 4.53955 17.8033 4.53955 17.8053C4.53955 17.8073 4.53983 17.8093 4.53987 17.8113C4.53994 17.8178 4.54032 17.8244 4.54064 17.831C4.54096 17.8377 4.54131 17.8443 4.54191 17.851C4.54226 17.8552 4.54254 17.8595 4.543 17.8637C4.54366 17.8698 4.54472 17.8759 4.5456 17.882C4.54655 17.8885 4.54757 17.895 4.54876 17.9016C4.54961 17.9061 4.55027 17.9107 4.55122 17.9152C4.55242 17.9208 4.554 17.9264 4.55541 17.932C4.55702 17.9385 4.55868 17.945 4.56054 17.9514C4.56184 17.956 4.56296 17.9606 4.56441 17.9651C4.56602 17.9703 4.56806 17.9753 4.56986 17.9804C4.57221 17.9871 4.57467 17.9938 4.57731 18.0004C4.57903 18.0047 4.58054 18.0091 4.58241 18.0134C4.58441 18.018 4.58677 18.0225 4.58887 18.0271C4.59207 18.034 4.59538 18.0408 4.59889 18.0476C4.601 18.0517 4.60294 18.0558 4.60512 18.0597C4.60744 18.0639 4.61004 18.068 4.61246 18.0721C4.61647 18.0789 4.62059 18.0857 4.62491 18.0923C4.62748 18.0962 4.62994 18.1002 4.63261 18.104C4.63528 18.1079 4.6382 18.1117 4.64098 18.1155C4.64548 18.1217 4.65008 18.1278 4.65486 18.1338C4.65806 18.1378 4.66126 18.1418 4.6646 18.1457C4.6659 18.1473 4.66699 18.1489 4.66829 18.1505C4.6703 18.1528 4.67258 18.1547 4.67462 18.157C4.67919 18.1621 4.68376 18.1672 4.68858 18.1721C4.69311 18.1768 4.69779 18.1813 4.7025 18.1858C4.70693 18.19 4.71136 18.1942 4.71586 18.1983C4.71786 18.2001 4.71959 18.2021 4.72162 18.2038L6.42698 19.6809C6.52668 19.7673 6.64955 19.8096 6.77186 19.8096C6.91948 19.8096 7.0663 19.7479 7.17057 19.6276C7.36119 19.4075 7.33728 19.0746 7.11724 18.884L6.48052 18.3325H11.2545C11.5457 18.3325 11.7817 18.0965 11.7817 17.8054C11.7817 17.5139 11.5457 17.278 11.2545 17.278Z" fill="black"/>
</svg>
