<svg width="24" height="24" viewBox="8 8 16 16" fill="none" xmlns="http://www.w3.org/2000/svg">
<path d="M20 16.5H19V17.5H20V16.5Z" fill="black"/>
<path d="M22 12H10V10.5H21V9.5H10C9.73478 9.5 9.48043 9.60536 9.29289 9.79289C9.10536 9.98043 9 10.2348 9 10.5V21C9 21.2652 9.10536 21.5196 9.29289 21.7071C9.48043 21.8946 9.73478 22 10 22H22C22.2652 22 22.5196 21.8946 22.7071 21.7071C22.8946 21.5196 23 21.2652 23 21V13C23 12.7348 22.8946 12.4804 22.7071 12.2929C22.5196 12.1054 22.2652 12 22 12ZM10 21V13H22V14.5H18C17.7348 14.5 17.4804 14.6054 17.2929 14.7929C17.1054 14.9804 17 15.2348 17 15.5V18.5C17 18.7652 17.1054 19.0196 17.2929 19.2071C17.4804 19.3946 17.7348 19.5 18 19.5H22V21H10ZM22 15.5V18.5H18V15.5H22Z" fill="black"/>
</svg>
